<svg width="89" height="105" viewBox="0 0 89 105" fill="none" xmlns="http://www.w3.org/2000/svg">
<path d="M88.5818 54.6431C88.5818 46.2395 86.7713 38.3445 83.5964 31.4842C97.1292 -5.27064 69.0957 0.112846 67.5349 0.47934C61.5957 1.874 56.101 4.11307 51.0326 6.95141C50.2852 6.9009 49.5333 6.87316 48.7756 6.87316C29.8603 6.87316 14.027 22.7057 9.97468 43.9301C19.9443 30.508 26.9214 25.0923 31.0996 22.9251C30.4327 23.6402 29.7798 24.3633 29.1376 25.0918C28.9238 25.334 28.7179 25.5797 28.507 25.8233C28.0836 26.3122 27.661 26.8015 27.2483 27.2953C27.0027 27.5889 26.7638 27.8851 26.5219 28.1808C26.1559 28.628 25.7906 29.0747 25.4332 29.5244C25.1794 29.8439 24.9318 30.1643 24.6825 30.4842C24.3486 30.9131 24.0168 31.3425 23.6912 31.7734C23.4382 32.1082 23.1894 32.443 22.9409 32.7788C22.6322 33.1958 22.3264 33.6128 22.0247 34.0308C21.7746 34.3775 21.5266 34.7242 21.2814 35.0714C20.9954 35.4765 20.7132 35.8816 20.4338 36.2867C20.1865 36.6453 19.9402 37.0034 19.6983 37.3614C19.4367 37.7487 19.1808 38.1355 18.9253 38.5218C18.6777 38.8963 18.4301 39.2702 18.1883 39.6441C17.958 40.0002 17.7343 40.3548 17.5089 40.7099C17.2547 41.1111 16.9984 41.5122 16.7508 41.9114C16.5738 42.1972 16.4037 42.48 16.23 42.7647C14.6572 45.3401 13.2202 47.8659 11.9222 50.2922C11.9189 50.2982 11.9156 50.3041 11.9127 50.31C11.571 50.9489 11.2413 51.5784 10.9181 52.2024C10.9008 52.2361 10.8826 52.2703 10.8653 52.3045C10.5417 52.931 10.2293 53.5466 9.92474 54.1557C9.91401 54.177 9.90287 54.1988 9.89214 54.2201C9.07334 55.8599 8.31397 57.4408 7.63013 58.9281C4.045 66.725 2.29969 72.1724 2.22416 72.4958C-9.09704 121.067 26.2367 100.556 31.1673 97.4941C36.4763 100.641 42.453 102.413 48.7756 102.413C66.0842 102.413 80.8106 89.1544 86.2921 70.639H65.3764C62.2816 76.9135 56.3234 81.1633 49.4784 81.1633C39.4494 81.1633 31.3196 72.0446 31.3196 60.7957H88.2541C88.4699 58.781 88.5818 56.7276 88.5818 54.6431ZM81.1457 7.63487C84.5736 10.4113 87.3231 14.7716 82.6013 29.4556C78.0728 20.7157 71.2595 13.8598 63.1615 10.0914C66.8453 7.9563 75.968 3.44051 81.1457 7.63487ZM8.29747 97.3965C5.50555 93.9604 5.01196 85.5915 11.1728 70.3414C14.282 81.0692 20.4866 90.0582 28.5062 95.7631C24.5178 98.3974 13.9296 104.329 8.29747 97.3965ZM31.2317 47.7327C31.5499 36.7998 39.4787 28.0461 49.2205 28.0461C58.9618 28.0461 66.8911 36.7998 67.2093 47.7327H31.2317Z" fill="#1EBBEE"/>
</svg>
