<svg width="143" height="129" viewBox="0 0 143 129" fill="none" xmlns="http://www.w3.org/2000/svg">
<path d="M123.101 73.734C118.101 73.7678 113.772 75.2063 110.141 77.3481C108.8 74.1693 107.459 71.3917 107.236 69.3175C106.985 66.9083 106.677 65.4357 106.985 62.5584C107.292 59.6805 108.688 55.5982 108.688 55.2636C108.66 54.9625 108.381 53.4902 105.504 53.4567C102.627 53.4233 100.141 54.126 99.8617 55.0294C99.5824 55.9328 99.0238 58.0074 98.6606 60.1489C98.1579 63.2942 92.9066 74.4367 89.9179 80.2923C88.9403 78.017 88.1023 76.0093 87.9344 74.4029C87.6833 71.994 87.3758 70.5214 87.6833 67.6441C87.9906 64.7662 89.3872 60.6843 89.3872 60.3497C89.3592 60.0485 89.0799 58.5762 86.2032 58.5428C83.3259 58.5093 80.8402 59.212 80.5609 60.1154C80.2816 61.0189 79.9743 63.1604 79.3598 65.2349C78.773 67.3095 71.7899 85.9137 69.9743 90.7655C69.0526 93.2416 68.2428 95.2158 67.656 96.5542C67.0694 97.8927 67.6281 96.6546 67.5722 96.7885C67.0694 97.9261 66.7901 98.5619 66.7901 98.5619V98.5957C66.399 99.4322 65.9801 100.235 65.7842 100.235C65.6446 100.235 65.3653 97.9931 65.8401 94.915C66.8736 88.4567 69.3875 78.3854 69.3598 78.0173C69.3598 77.85 69.8344 76.0762 67.7395 75.1731C65.7005 74.2697 64.9745 75.7754 64.8066 75.7754C64.639 75.7754 64.4994 76.3108 64.4994 76.3108C64.4994 76.3108 66.7619 64.9679 60.1699 64.9679C56.0359 64.9679 50.3378 70.3551 47.5166 75.2738C45.729 76.445 41.9302 78.9207 37.908 81.5645C36.3717 82.5683 34.7796 83.639 33.2713 84.6094L32.9643 84.2072C24.9757 74.0017 10.1996 66.7741 10.8141 53.0552C11.0376 48.0696 12.49 34.9195 39.1934 18.9921C61.0643 5.94243 78.5777 9.52274 81.622 17.4864C85.9515 28.8631 72.2648 50.0103 49.5283 53.0552C40.8694 54.2263 36.3161 50.2111 35.1712 48.7053C33.9701 47.1327 33.8025 47.0657 33.3556 47.3669C32.6294 47.8353 33.0763 49.2407 33.3556 50.0772C34.026 52.1852 36.8192 55.9328 41.5677 57.8066C45.7293 59.4462 55.8968 60.3497 68.187 54.6613C81.9575 48.2703 92.7114 30.5361 89.555 15.713C86.3429 0.622168 65.4496 -4.33003 45.7016 4.06863C33.9419 9.08775 21.2049 16.9176 12.0431 27.19C1.14959 39.3698 -0.582199 50.0103 0.144036 54.4271C2.68614 70.1871 20.8138 80.4596 28.0762 88.0552C27.713 88.2891 27.3779 88.5233 27.0706 88.7244C23.4394 90.8656 9.61303 99.5323 6.14944 108.7C2.23895 119.073 6.76395 126.535 9.78062 127.539C19.11 130.651 28.6627 125.063 33.8302 115.861C38.9694 106.659 38.3552 94.7139 35.9809 89.2598L35.8969 89.059L38.746 87.0514C40.5898 85.7464 42.4053 84.5418 43.9972 83.5042C43.1036 86.4153 42.4609 89.8618 42.126 94.8809C41.735 100.77 43.7461 108.399 46.3996 111.41C47.5728 112.715 48.9694 112.749 49.8353 112.749C52.9078 112.749 54.3044 109.704 55.8407 106.057C57.7401 101.606 59.416 96.4535 59.416 96.4535C59.416 96.4535 57.3211 110.407 63.0472 110.407C65.1421 110.407 67.237 107.161 68.1867 105.488V105.521C68.1867 105.521 68.2426 105.421 68.3543 105.187C68.4715 104.979 68.5833 104.767 68.6895 104.551V104.484C69.5274 102.744 71.3989 98.7627 74.1921 92.1709C77.7951 83.6718 81.2589 73.0313 81.2589 73.0313C81.2589 73.0313 81.5941 75.6413 82.6276 79.9242C83.2418 82.4676 84.5826 85.2445 85.6161 87.9548C84.7781 89.3602 84.2753 90.1636 84.2753 90.1636L84.3033 90.197C83.6332 91.2678 82.8787 92.4058 82.0969 93.5431C79.2478 97.6253 75.8401 102.277 75.3932 103.615C74.8625 105.187 74.9742 106.359 76.0077 107.296C76.7619 107.965 78.1026 108.099 79.5271 107.965C82.0969 107.764 83.8845 106.995 84.7784 106.526C86.175 105.924 87.7671 105.02 89.3034 103.682C92.0966 101.206 93.8005 97.6926 93.6329 93.0081C93.5491 90.4316 92.8508 87.8886 91.9849 85.4794C92.2363 85.0444 92.4879 84.6091 92.739 84.141C97.1523 76.4112 100.56 67.9125 100.56 67.9125C100.56 67.9125 100.895 70.5224 101.929 74.8054C102.459 76.9803 103.521 79.3564 104.471 81.6987C100.337 85.7474 97.7389 90.4319 96.8451 93.5103C95.1971 99.1987 96.4819 101.775 98.912 102.377C100.001 102.645 101.566 102.043 102.738 101.441C104.191 100.872 105.951 99.901 107.571 98.4625C110.364 95.9864 113.046 92.54 112.906 87.8889C112.822 85.7474 112.347 83.6394 111.705 81.6317C115.224 79.8918 119.777 78.888 125.559 79.7245C137.989 81.4644 140.447 90.7665 139.973 94.648C139.498 98.5298 136.9 100.671 136.034 101.34C135.168 101.976 134.889 102.21 134.972 102.679C135.084 103.382 135.475 103.348 136.229 103.214C137.263 103.013 142.765 100.036 142.989 92.8752C143.324 83.6722 136.034 73.6339 123.101 73.734ZM27.2382 112.448C23.1322 117.835 17.3502 119.876 14.8922 118.136C12.2386 116.296 13.2719 108.366 18.3278 102.644C21.4004 99.1642 25.3947 95.952 28.0203 93.9778C28.6069 93.5428 29.5007 92.9074 30.5621 92.1374C30.7297 92.0039 30.8414 91.9367 30.8414 91.9367C31.037 91.8028 31.2604 91.6355 31.4839 91.4682C33.3553 99.6326 31.5677 106.793 27.2382 112.448ZM57.2652 87.9883C55.8407 92.1709 52.824 102.912 51.0084 102.31C49.444 101.808 48.4945 93.6766 50.7009 85.646C51.8182 81.5969 54.1924 76.7789 55.589 74.9048C57.8518 71.8933 60.3096 70.8895 60.9243 72.1275C61.6506 73.734 58.1591 85.3783 57.2652 87.9883ZM82.041 102.176C81.4265 102.544 80.8679 102.811 80.6165 102.611C80.421 102.477 80.8676 101.975 80.8676 101.975C80.8676 101.975 83.9681 97.9934 85.1971 96.1531C85.8954 95.0826 86.7333 93.8446 87.6272 92.4389V92.8404C87.6274 97.6584 83.7728 100.871 82.041 102.176ZM101.146 96.9558C100.699 96.5542 100.756 95.3162 102.264 91.4347C102.85 89.8955 104.191 87.3191 106.509 84.8764C106.789 85.8802 106.956 86.8503 106.928 87.7541C106.901 93.777 103.325 96.0189 101.146 96.9558Z" fill="#CF649A"/>
</svg>
