<svg width="66" height="115" viewBox="0 0 66 115" fill="none" xmlns="http://www.w3.org/2000/svg">
<path d="M34.1304 113.712C34.1304 112.859 35.4236 112.5 35.8083 113.247C36.041 113.699 35.7588 114.069 35.181 114.069C34.6032 114.069 34.1304 113.908 34.1304 113.712H34.1304ZM26.7179 111.999C26.7179 111.306 27.0211 110.964 27.3918 111.238C27.7624 111.513 28.0656 112.081 28.0656 112.499C28.0656 112.918 27.7624 113.26 27.3918 113.26C27.0211 113.26 26.7179 112.693 26.7179 111.999ZM31.4349 112.538C31.4349 111.76 33.0737 110.818 34.354 110.86C34.7869 110.874 34.5526 111.42 33.8331 112.073C32.3483 113.421 31.435 113.598 31.435 112.538H31.4349ZM40.8688 110.957C40.8688 110.58 42.0728 109.619 43.5443 108.823C45.0157 108.027 46.7306 106.698 47.355 105.87C48.7281 104.049 49.4044 103.953 49.4044 105.578C49.4044 106.245 49.0153 106.791 48.5397 106.791C48.0641 106.791 46.3271 107.882 44.6796 109.217C41.5211 111.775 40.8688 112.073 40.8688 110.957ZM44.2382 110.834C44.2382 110.389 44.7109 110.025 45.2887 110.025C45.8665 110.025 46.1519 110.389 45.9228 110.834C45.6938 111.279 45.221 111.643 44.8722 111.643C44.5235 111.643 44.2382 111.279 44.2382 110.834ZM49.3357 110.918C49.1307 110.52 49.416 109.986 49.9698 109.731C50.5814 109.449 50.9767 109.731 50.9767 110.455C50.9767 111.763 49.9237 112.06 49.3357 110.918H49.3357ZM27.8154 110.194C27.6342 109.842 28.526 109.7 29.7972 109.878C31.0683 110.056 32.1084 110.344 32.1084 110.518C32.1084 111.126 28.1414 110.827 27.8153 110.194H27.8154ZM37.7966 109.595C38.516 108.942 39.3833 108.408 39.724 108.408C40.5776 108.408 46.9334 103.412 46.9334 102.741C46.9334 102.442 47.6914 101.783 48.618 101.277C49.5445 100.77 50.3027 100.527 50.3027 100.737C50.3027 101.427 47.3752 105.173 46.8353 105.173C46.5444 105.173 44.8869 106.253 43.152 107.574C41.4172 108.894 39.7598 109.798 39.469 109.582C39.1782 109.366 38.7498 109.56 38.5169 110.012C38.2841 110.464 37.7325 110.822 37.2911 110.808C36.8497 110.794 37.0772 110.248 37.7966 109.595H37.7966ZM25.2016 109.468C24.553 109.264 24.0224 108.795 24.0224 108.424C24.0224 108.053 24.6288 107.941 25.3701 108.173C26.1113 108.406 26.7178 108.918 26.7178 109.311C26.7178 109.704 26.642 109.983 26.5494 109.931C26.4567 109.88 25.8502 109.671 25.2016 109.468ZM33.4562 109.216C33.4562 108.772 33.7594 108.408 34.1301 108.408C34.5007 108.408 34.8039 108.772 34.8039 109.216C34.8039 109.661 34.5007 110.025 34.1301 110.025C33.7594 110.025 33.4562 109.661 33.4562 109.216ZM52.324 109.238C52.324 108.142 53.5215 107.462 53.9582 108.31C54.167 108.715 53.8847 109.255 53.3309 109.51C52.7771 109.766 52.324 109.643 52.324 109.238H52.324ZM35.2749 108.132C35.0532 107.439 34.1162 107.15 32.6758 107.33C31.004 107.539 30.7615 107.436 31.735 106.932C32.9926 106.281 32.9857 106.234 31.5665 105.789C30.5646 105.474 30.0864 105.689 30.0864 106.453C30.0864 108.035 26.8048 107.587 26.3707 105.946C25.9973 104.534 19.3047 100.036 19.3047 101.197C19.3047 101.587 20.497 102.635 21.9544 103.528C24.6182 105.158 26.0289 106.79 24.7751 106.79C24.4045 106.79 23.9138 106.426 23.6848 105.982C23.4557 105.537 22.737 105.173 22.0875 105.173C21.438 105.173 20.3185 104.536 19.5997 103.758C18.8809 102.979 17.156 101.323 15.7664 100.078C14.3769 98.8319 13.24 97.4296 13.24 96.9613C13.24 96.4931 14.3332 97.2618 15.6692 98.6696C17.0053 100.077 18.2937 100.995 18.5321 100.709C18.7706 100.423 18.3597 99.6892 17.619 99.0789C15.7185 97.5129 13.9044 95.3053 13.1573 93.6494C12.0595 91.2164 13.7513 92.035 15.4099 94.7393C16.2549 96.1171 18.3108 98.1812 19.9786 99.3261C21.6464 100.471 23.4207 101.784 23.9213 102.244C24.422 102.704 25.2378 103.152 25.7343 103.239C26.2308 103.326 27.8549 103.603 29.3434 103.853C32.0177 104.301 34.7354 105.717 35.5705 107.096C36.1808 108.104 37.6159 106.863 37.069 105.801C36.7988 105.276 36.9307 105.156 37.3967 105.501C37.9536 105.914 37.9766 106.528 37.4771 107.648C36.6626 109.475 35.7672 109.671 35.275 108.132H35.2749ZM28.7191 105.141C27.1329 103.938 26.3288 104.25 27.7665 105.511C28.4853 106.142 29.2168 106.486 29.392 106.276C29.5671 106.066 29.2643 105.555 28.7192 105.141H28.7191ZM21.6347 107.544C21.39 107.069 20.7499 106.883 20.2122 107.13C19.6745 107.378 19.4064 107.247 19.6163 106.839C19.8263 106.432 19.3572 105.854 18.574 105.556C17.2099 105.036 14.5876 102.386 14.5876 101.527C14.5876 101.024 17.2467 102.799 18.4212 104.086C18.8906 104.601 20.1911 105.508 21.3112 106.103C22.4313 106.698 23.3477 107.46 23.3477 107.796C23.3477 108.711 22.1443 108.533 21.6347 107.544H21.6347ZM39.5072 106.404C40.2021 105.4 40.1824 105.173 39.4004 105.173C38.8732 105.173 38.0854 104.745 37.6496 104.222C37.0425 103.494 37.3298 102.927 38.8788 101.796C41.1971 100.104 41.5416 100.016 41.5416 101.114C41.5416 101.55 40.7835 102.136 39.8569 102.415C38.9304 102.694 38.1723 103.247 38.1723 103.643C38.1723 105.023 39.7954 104.35 41.6732 102.191C42.7127 100.996 43.5632 100.42 43.5632 100.911C43.5632 101.402 42.7293 102.55 41.7101 103.463C40.6909 104.375 40.1717 105.133 40.5562 105.147C40.9409 105.161 42.3054 104.056 43.5886 102.692C44.8718 101.327 45.5635 100.423 45.1259 100.683C44.1282 101.276 43.292 99.8088 44.2308 99.1126C45.3364 98.2925 46.895 94.1895 47.32 90.9799C47.6154 88.7495 47.5067 88.1694 46.8803 88.634C46.2489 89.1022 46.153 88.4893 46.4829 86.0929C46.722 84.3558 46.9209 82.1159 46.925 81.1152C46.929 80.1144 47.2561 79.2957 47.6517 79.2957C48.0643 79.2957 48.1885 79.9852 47.9432 80.913C47.6767 81.9206 47.8221 82.5303 48.329 82.5303C49.3315 82.5303 48.7374 73.8604 47.645 72.5489C47.2531 72.0786 46.9324 70.9195 46.9324 69.9732C46.9324 68.2078 44.5773 60.6895 41.9998 54.227C40.1156 49.5025 36.067 44.5445 33.6669 44.0219C28.8652 42.9769 23.8794 46.7934 21.6192 53.2436C20.1942 57.311 20.3267 67.0242 21.847 69.939C22.0952 70.4149 22.3517 71.2251 22.4168 71.7394C22.482 72.2538 23.5519 74.3224 24.7943 76.3363C26.7375 79.4861 27.3358 79.9564 29.0748 79.7012C30.1867 79.5379 31.4268 79.3798 31.8306 79.3499C32.5741 79.2947 34.1288 75.8919 34.1288 74.3197C34.1288 73.8489 33.2275 74.6214 32.1259 76.0367C30.1652 78.5554 28.4236 78.793 29.1764 76.4391C29.3881 75.777 29.175 75.252 28.6946 75.252C28.2209 75.252 27.2787 74.6498 26.6009 73.9136C25.8736 73.1238 25.3686 72.9552 25.3686 73.5023C25.3686 74.0124 25.9751 74.8841 26.7164 75.4397C27.4576 75.9951 28.0641 76.7467 28.0641 77.1096C28.0641 77.4727 27.4277 77.2348 26.6499 76.5809C24.9714 75.1701 23.1961 71.3474 23.7341 70.3026C24.3275 69.1504 25.3552 70.3122 24.9273 71.6481C24.6688 72.4563 24.8619 72.6983 25.5226 72.394C26.0604 72.1464 26.8894 72.5061 27.3647 73.1935C28.6121 74.9971 32.7063 74.8694 32.6674 73.0281C32.651 72.2498 32.9273 69.9269 33.2815 67.8662C34.1908 62.5752 31.8149 55.1075 29.2035 55.0475C28.9037 55.0407 28.8458 55.399 29.0748 55.8437C29.3039 56.2885 29.1737 56.6524 28.7856 56.6524C28.3975 56.6524 27.886 58.108 27.6489 59.8871C27.4118 61.6662 26.9355 63.1217 26.5904 63.1217C26.2453 63.1217 26.1373 62.783 26.3506 62.369C26.5638 61.9549 26.4251 61.3839 26.0424 61.1C25.6597 60.8162 25.5704 60.1543 25.844 59.629C26.5998 58.1781 26.6709 56.6524 25.9828 56.6524C25.645 56.6524 25.3686 57.3802 25.3686 58.2697C25.3686 59.1593 25.0412 59.887 24.6412 59.887C23.7797 59.887 24.5314 54.7796 25.4548 54.3595C25.7826 54.2103 25.9154 53.8252 25.7498 53.5037C25.5843 53.1822 26.1275 51.8977 26.9571 50.6492C28.713 48.0066 31.7417 47.2975 33.9366 49.0151C36.2971 50.8623 37.21 50.3757 35.4948 48.1847C34.2125 46.5467 33.4926 46.2666 31.5026 46.6316C28.3859 47.2031 26.1994 48.9099 24.7987 51.8645C24.1856 53.1579 23.4194 54.2184 23.096 54.2212C22.7727 54.2241 22.8459 53.738 23.2587 53.1411C23.6714 52.5442 23.8522 51.8675 23.6603 51.6372C23.1931 51.0765 28.5145 45.3493 29.5822 45.2637C30.0444 45.2267 31.1567 45.1009 32.0539 44.9843C33.5713 44.7871 34.683 45.7012 39.0857 50.7661C40.1981 52.0458 42.5716 57.5915 43.8172 61.8208C44.1991 63.1178 44.1116 63.1949 43.2414 62.3283C42.6769 61.7662 42.2152 60.7582 42.2152 60.0885C42.2152 58.5375 38.2558 50.1826 37.5208 50.1826C36.3332 50.1826 36.2934 52.4649 37.4745 52.8355C38.7336 53.2306 41.2909 59.1202 42.5551 64.5363C42.7887 65.537 43.2531 66.3558 43.5871 66.3558C43.9211 66.3558 44.0199 65.81 43.8066 65.1428C43.5932 64.4757 43.7215 63.9298 44.0916 63.9298C44.7059 63.9298 45.5555 66.5492 45.9278 69.5904C46.0094 70.2577 46.313 71.8585 46.6025 73.1479C46.9797 74.8284 46.9105 75.3306 46.3584 74.9211C45.9347 74.6068 45.3958 72.9069 45.1608 71.1435C44.9258 69.3801 44.4885 67.7555 44.189 67.5334C43.2286 66.8211 43.7914 70.7152 45.045 73.4562C46.5229 76.6874 46.602 79.8062 45.2475 81.4317C44.6916 82.0988 44.2367 83.3124 44.2367 84.1286C44.2367 85.2142 43.8751 85.4989 42.889 85.1894C41.9228 84.8863 41.5413 85.1642 41.5413 86.1728C41.5413 87.3899 41.692 87.4298 42.6617 86.4693C43.6226 85.5174 43.7321 85.5321 43.4315 86.5725C43.2387 87.2396 42.5524 87.7287 41.9063 87.6595C41.255 87.5898 40.2491 88.5429 39.6482 89.7995C38.3898 92.4307 35.2961 93.8092 31.4751 93.4408C25.7417 92.8881 18.42 83.775 17.5103 76.0595C17.3059 74.3256 17.3738 74.2402 17.9873 75.4594C18.3808 76.2413 18.5167 77.242 18.2895 77.6832C18.0622 78.1245 18.1216 78.4859 18.4215 78.4862C18.7213 78.4867 19.8062 80.2812 20.8325 82.4737C23.7124 88.6273 27.137 91.4568 32.1439 91.8202C36.1092 92.108 36.3524 92.0117 38.5661 89.2763C39.8315 87.7127 40.8668 85.7084 40.8668 84.8225C40.8668 83.5964 40.337 84.0475 38.6482 86.7115C36.8045 89.6196 35.9896 90.2547 33.8269 90.4696C32.3955 90.6117 30.5187 90.5161 29.6563 90.2557C27.6618 89.6551 23.67 85.4684 21.2096 81.3967C18.8539 77.4986 18.6926 75.6089 20.9891 78.8134C21.9152 80.1057 22.673 81.4246 22.673 81.7443C22.673 82.8351 27.1553 88.2016 27.6103 87.6556C27.8597 87.3562 28.0639 87.5194 28.0639 88.0181C28.0639 89.333 32.6023 90.1828 33.7136 89.0759C34.2185 88.573 35.1747 88.4116 35.8384 88.7173C36.6669 89.0988 36.8924 88.9765 36.5579 88.3269C35.981 87.2069 33.6646 87.0591 33.3424 88.1219C33.0393 89.1221 28.1413 87.0284 26.7856 85.3191C25.7788 84.0499 25.82 84.0302 27.39 85.0298C30.062 86.731 32.7708 86.8336 34.1944 85.2878C35.0118 84.3999 35.4763 84.2512 35.4763 84.8771C35.4763 85.4171 35.7795 85.634 36.1502 85.3592C36.5208 85.0843 36.824 84.4955 36.824 84.0507C36.824 83.6059 36.5208 83.4669 36.1502 83.7418C35.4247 84.2799 35.2099 83.1181 35.885 82.3079C36.7727 81.2427 38.0363 83.7235 37.3715 85.2261C36.2325 87.8008 37.3087 87.6103 38.5883 85.0107C39.2603 83.6457 40.1995 82.5288 40.6755 82.5288C41.1516 82.5288 41.541 82.1649 41.541 81.7202C41.541 81.2754 41.8647 80.9115 42.2603 80.9115C42.6729 80.9115 42.7972 81.601 42.5518 82.5288C42.3165 83.4184 42.4236 84.1462 42.7898 84.1462C43.6732 84.1462 44.5561 79.5979 44.3594 76.0595C44.1511 72.31 43.7185 70.9964 42.8934 71.6083C42.4896 71.9079 42.2176 71.028 42.2216 69.4358C42.2302 66.0745 39.763 57.5256 38.0425 54.9547L36.7428 53.0127L37.8217 55.8431C38.415 57.3998 39.1529 59.2312 39.4612 59.913C40.1111 61.3497 40.6493 64.4124 41.1805 69.6958C41.5002 72.8758 41.3695 73.499 40.3136 73.8304C39.0511 74.2265 38.8063 75.1963 38.7811 79.901C38.7733 81.3465 38.4635 82.5291 38.0926 82.5291C37.7217 82.5291 37.6346 82.109 37.8991 81.5955C38.2115 80.9888 38.0822 80.8826 37.5297 81.2924C36.883 81.772 36.8178 81.4633 37.2571 80.0022C37.9794 77.6005 37.752 66.3377 36.9621 65.3894C36.6316 64.9926 36.5025 65.7117 36.6654 67.0432C36.8238 68.3387 36.6762 69.6044 36.3374 69.8558C35.9985 70.1071 35.7177 69.3313 35.7134 68.1319C35.7094 66.9326 35.4886 64.5867 35.2235 62.9188C34.6743 59.4648 35.1958 58.896 36.1501 61.908C36.5023 63.0199 37.253 63.9297 37.818 63.9297C38.6001 63.9297 38.8455 64.8839 38.8455 67.9252C38.8455 70.1228 39.16 72.1541 39.5443 72.4392C40.1896 72.9177 40.015 68.0922 39.2195 63.4618C38.8339 61.2168 36.8836 56.6548 35.0177 53.6324C33.7597 51.5951 33.6565 51.1344 34.5503 51.546C35.2599 51.8728 35.5324 51.754 35.2648 51.2344C34.637 50.0155 29.5383 49.207 28.1968 50.1137C27.2956 50.7227 27.5171 50.8716 29.2406 50.8157C31.7787 50.7334 34.556 53.7424 36.7878 58.9925C38.3043 62.5597 38.4232 63.1207 37.6623 63.1207C37.3821 63.1207 36.7366 61.9922 36.2279 60.613C35.5387 58.7444 35.1559 58.3837 34.726 59.1978C34.2558 60.0882 34.1324 60.066 34.059 59.0773C34.0095 58.4102 34.0114 57.5677 34.063 57.2051C34.115 56.8426 33.5183 55.4687 32.737 54.152C31.5897 52.2184 30.8826 51.7931 29.0597 51.9405C27.8184 52.0408 26.961 52.4299 27.1543 52.8052C27.3475 53.1804 27.1392 54.0174 26.6913 54.6651C25.6636 56.1511 26.0689 56.1495 28.464 54.6583C30.1759 53.5925 30.4707 53.6128 31.4098 54.8604C33.2648 57.3253 34.2866 60.9869 34.5612 66.1535C34.7533 69.7688 34.5956 71.2077 34.0073 71.2077C33.3843 71.2077 33.3741 71.4347 33.9649 72.1437C34.5558 72.8528 34.9774 72.8484 35.703 72.1263C36.4783 71.354 36.7183 71.5331 36.9624 73.0652C37.1283 74.1064 37.0346 75.6611 36.7543 76.52C36.3066 77.8919 36.2356 77.8359 36.1709 76.0601C36.0984 74.0725 36.0813 74.0794 35.1572 76.4644C34.6403 77.7987 33.9459 79.3571 33.6142 79.9275C32.9263 81.1101 26.7215 82.2518 26.7051 81.1987C26.6851 79.9204 22.8682 75.2871 22.3226 75.8789C22.0257 76.2009 21.9675 76.0744 22.1932 75.5978C22.419 75.1211 22.1372 73.6654 21.5669 72.3631C20.2127 69.2701 19.931 67.7367 19.6516 61.9361C19.2162 52.897 23.4242 44.9123 29.6175 43.0262C31.9516 42.3152 32.8868 42.4347 35.3911 43.7641C37.0347 44.6365 38.5347 45.1641 38.7245 44.9362C38.9143 44.7085 38.9432 44.4311 38.7888 44.3199C35.5641 41.998 33.7198 41.2874 30.918 41.2874C27.9706 41.2874 27.2124 41.6748 24.4518 44.5908C22.3222 46.8404 21.3246 47.4879 21.3246 46.6207C21.3246 45.9203 22.9913 44.0192 25.0284 42.3961C28.5191 39.6148 28.9651 39.4703 32.7799 39.8854C36.0417 40.2404 36.9441 40.0762 37.4274 39.0398C37.9704 37.8753 38.1988 37.8887 39.8422 39.1809C40.8405 39.9658 41.821 40.4115 42.0211 40.1713C42.5357 39.5537 46.2573 41.9733 46.2573 42.9255C46.2573 44.064 45.0724 43.8952 44.7431 42.7098C44.5374 41.9692 44.1845 42.042 43.3966 42.9876C42.4221 44.157 42.5832 44.5969 45.2404 48.0209C47.5101 50.9455 48.5375 53.2567 49.9001 58.5031C50.8615 62.2051 51.6482 65.6682 51.6482 66.199C51.6482 66.7298 51.9009 67.1642 52.2097 67.1642C52.9928 67.1642 52.9505 64.5443 52.1476 63.3231C51.7821 62.7671 51.6611 62.3122 51.8786 62.3122C52.0961 62.3122 51.6892 60.6746 50.9743 58.6732C49.7518 55.2508 49.7927 54.6568 51.2288 54.9729C51.7979 55.0982 51.6616 54.0492 50.6588 50.5865C50.197 48.992 50.2054 48.9914 51.2562 50.5389C52.4618 52.3145 52.6533 54.6929 51.6506 55.4366C51.2237 55.7532 51.3207 56.7278 51.9169 58.1125C53.1936 61.0779 54.3641 66.5069 54.4724 69.9665C54.5216 71.5385 54.8365 72.8249 55.172 72.8249C55.8841 72.8249 55.2146 65.4475 54.2239 62.3785C53.8533 61.2303 53.4515 59.745 53.331 59.0777C53.2105 58.4106 52.9018 57.2279 52.6449 56.4495C52.3749 55.6315 52.4837 55.0344 52.9027 55.0344C53.3013 55.0344 53.4606 54.3976 53.2567 53.6192C52.4494 50.5381 55.2026 55.5035 57.3976 61.0875C60.4731 68.9114 59.5507 69.4867 56.3598 61.7347C53.4869 54.7556 52.7901 54.2187 55.2428 60.8742C56.108 63.2218 56.8465 65.3246 56.884 65.547C56.9214 65.7694 57.1102 66.4972 57.3035 67.1643C57.4967 67.8315 57.9686 69.651 58.352 71.2077C58.8787 73.3459 58.9903 73.4893 58.8083 71.7949C58.6759 70.5612 58.8077 69.3737 59.1013 69.1559C59.9077 68.5578 61.2894 77.3631 61.3583 83.5382C61.3917 86.5395 61.6466 88.9958 61.9245 88.9967C62.2025 88.9975 62.4299 89.3694 62.4299 89.8227C62.4299 90.2763 61.6718 90.4823 60.7453 90.2806C59.3883 89.9853 59.0606 90.2428 59.0606 91.6036C59.0606 92.533 58.2871 94.5102 57.3416 95.9977C56.3962 97.4851 55.8656 98.6967 56.1624 98.6899C57.1013 98.6676 58.1325 97.54 58.5996 96.0229C58.8571 95.1866 59.3828 94.8025 59.8232 95.129C60.5354 95.6573 54.9647 102.757 51.3111 105.977C50.0018 107.131 49.997 107.118 51.1426 105.498C52.6242 103.404 52.6442 102.648 51.2006 103.313C49.9694 103.88 50.3304 102.718 52.1956 100.112C52.7547 99.3314 53.0087 98.4482 52.7601 98.1498C52.5114 97.8515 51.8372 98.3086 51.2618 99.1657C50.0958 100.902 50.1724 100.522 51.916 95.9161C53.4087 91.9731 53.811 90.1388 53.9208 86.7745C53.9679 85.329 54.2762 84.1463 54.6058 84.1463C55.4732 84.1463 54.5933 91.7334 53.4065 94.4872C52.4939 96.605 52.5065 96.9615 53.5389 98.2191C54.6117 99.5258 54.6095 99.6725 53.5011 100.66C52.0548 101.948 51.9904 102.745 53.3327 102.745C53.8886 102.745 54.3435 102.23 54.3435 101.599C54.3435 100.969 54.7225 100.242 55.1858 99.9822C55.8539 99.6081 55.8553 99.4135 55.1926 99.0415C54.5958 98.7066 54.8401 97.8126 56.0476 95.9127C57.1194 94.2263 57.5868 92.6961 57.3249 91.7319C56.9842 90.4775 57.0392 90.4236 57.6388 91.4239C58.2673 92.4724 58.3673 92.4449 58.3762 91.2217C58.3816 90.4434 58.0833 89.8066 57.7127 89.8066C57.3421 89.8066 57.0388 89.4767 57.0388 89.0736C57.0388 88.6705 57.5695 88.4363 58.2181 88.5532C58.8667 88.67 59.007 88.6065 58.5299 88.4124C57.3044 87.9132 57.6189 76.8675 58.8586 76.8675C59.3402 76.8675 59.7343 76.2913 59.7343 75.587C59.7343 74.8829 59.3553 74.4639 58.892 74.6561C58.4256 74.8495 57.6765 73.8869 57.2138 72.4996C56.3977 70.0531 56.3863 70.08 56.7328 73.6328C57.0771 77.1621 57.0572 77.2109 56.0718 75.2501C55.0899 73.2961 55.0643 73.3637 55.3068 77.2718C55.66 82.9627 55.7957 83.3087 56.4168 80.1021C56.7558 78.3522 56.839 80.5131 56.6349 85.7628C56.3587 92.8652 56.0833 94.5182 54.9503 95.8712L53.5957 97.4884L54.3717 95.0624C55.673 90.9938 56.2705 84.0513 55.3555 83.6299C54.9152 83.4272 54.4982 81.5499 54.4287 79.458C54.3593 77.3661 54.1987 75.1088 54.0719 74.4417C53.9451 73.7745 53.6132 72.046 53.3343 70.6004C53.0554 69.1551 52.5777 67.9724 52.2727 67.9724C51.9676 67.9724 52.0277 69.0386 52.4062 70.3412C52.7847 71.6441 52.9916 73.7366 52.8661 74.9911C52.6979 76.6705 52.3303 75.704 51.472 71.326C50.8309 68.0559 50.4744 65.0537 50.68 64.6546C50.8855 64.2555 50.7325 63.9291 50.34 63.9291C49.9475 63.9291 49.6264 62.6768 49.6264 61.1464C49.6264 59.6159 49.3567 58.1638 49.0272 57.9194C48.6976 57.6749 48.2223 56.4915 47.9709 55.2896C47.378 52.4548 41.4847 43.5742 39.2393 42.1318C36.7527 40.5348 36.3247 41.65 38.7613 43.3772C39.8786 44.1693 40.6399 45.1145 40.4528 45.4776C40.2658 45.8408 40.5855 46.1379 41.1633 46.1379C41.7411 46.1379 42.2165 46.4109 42.2197 46.7444C42.2231 47.078 43.2085 48.6319 44.4098 50.1975C45.6111 51.7631 46.7122 53.5826 46.8568 54.2409C47.0013 54.8991 47.6283 57.6379 48.2502 60.3271C48.8721 63.0163 49.2685 65.6212 49.1311 66.1158C48.9937 66.6103 49.2006 67.2518 49.5907 67.5412C49.9809 67.8305 50.3002 68.4543 50.3002 68.9273C50.3002 69.4696 49.9268 69.4155 49.2894 68.7805C48.7334 68.2269 48.2786 67.2055 48.2786 66.5109C48.2786 65.8162 47.6249 63.5864 46.826 61.5557C46.0271 59.525 45.1112 57.1358 44.7907 56.2463C44.2457 54.734 44.2635 54.7253 45.064 56.1142C47.472 60.2918 47.5697 60.3967 47.0692 58.268C46.8078 57.1561 46.2204 55.5185 45.7639 54.629C45.0811 53.2985 44.8233 53.2138 44.3101 54.1513C43.5579 55.5254 44.1633 57.9243 47.03 64.928C47.346 65.7004 47.6047 66.9604 47.6047 67.7281C47.6047 68.4957 48.3642 69.8652 49.2925 70.7715C50.4909 71.9412 51.1039 73.5333 51.4058 76.2603C51.6686 78.6347 51.5722 80.1015 51.1533 80.1015C50.7806 80.1015 50.4777 79.4647 50.4802 78.6863C50.4939 74.4756 50.1942 72.812 49.209 71.6298C48.609 70.9097 47.9355 70.5396 47.7124 70.8074C47.4893 71.0751 47.7273 71.6062 48.2414 71.9873C49.5 72.9208 49.6942 83.8374 48.4469 83.5381C47.9837 83.4269 47.6046 83.6998 47.6046 84.1446C47.6046 84.5893 47.9079 84.9532 48.2785 84.9532C48.6491 84.9532 48.9523 85.716 48.9523 86.6483C48.9523 88.9444 46.9379 97.2332 46.0615 98.5438C45.6728 99.1248 45.6336 99.4888 45.9744 99.3525C46.5881 99.107 46.9307 99.6934 46.9307 100.989C46.9307 101.782 41.7643 106.273 39.9284 107.075C38.8469 107.548 38.7828 107.446 39.5055 106.401L39.5072 106.404ZM60.3003 85.9669C60.1936 85.1885 60.3283 84.1274 60.5996 83.6087C60.871 83.0901 60.807 81.7628 60.4574 80.6594C60.1078 79.5558 60.0045 78.4337 60.2279 78.1655C60.4514 77.8975 60.2804 77.678 59.848 77.678C58.8824 77.678 58.8006 80.6235 59.7467 81.3252C60.1233 81.6045 60.254 82.1778 60.037 82.5991C59.8201 83.0204 59.3209 83.1264 58.9278 82.835C58.4981 82.5163 58.3822 82.7526 58.637 83.4283C58.8702 84.0462 59.2481 85.1885 59.4769 85.9669C59.7057 86.7452 60.0282 87.3821 60.1936 87.3821C60.359 87.3821 60.407 86.7452 60.3003 85.9669H60.3003ZM44.5822 52.1884C44.9909 51.7372 44.7636 51.6627 43.9939 51.9954C43.0626 52.3981 42.8381 52.2299 43.122 51.3422C43.3457 50.6427 42.6438 49.1141 41.4303 47.6578C38.8147 44.519 38.1844 45.0905 40.3636 48.6252C41.2727 50.0999 42.2294 52.0241 42.4894 52.9011C42.7544 53.7945 43.172 54.1501 43.4393 53.7098C43.7016 53.2775 44.216 52.5929 44.5823 52.1884H44.5822ZM43.3215 42.0065C43.4984 42.0065 43.4733 41.6768 43.2657 41.2738C43.0581 40.8707 42.3164 40.7205 41.6174 40.9399C40.9183 41.1592 40.1427 40.9428 39.8936 40.4596C39.6446 39.9761 39.0797 39.5886 38.6383 39.5985C38.1969 39.6083 38.5939 40.3297 39.5205 41.2015C40.447 42.0732 41.609 42.6109 42.1026 42.3965C42.5962 42.182 43.1447 42.0065 43.3216 42.0065H43.3215ZM33.7931 104.274C33.5641 103.83 34.001 103.466 34.7641 103.466C35.5272 103.466 36.1516 103.83 36.1516 104.274C36.1516 104.719 35.7147 105.083 35.1806 105.083C34.6466 105.083 34.0222 104.719 33.7931 104.274ZM55.0067 103.889C55.4751 103.211 56.2761 102.657 56.7867 102.657C57.2972 102.657 57.6392 102.333 57.5465 101.936C57.3712 101.186 60.2663 97.805 61.0839 97.805C61.916 97.805 56.745 103.983 55.4297 104.561C54.3481 105.035 54.2841 104.934 55.0068 103.889H55.0067ZM30.3972 102.606C29.7741 101.396 29.9777 101.296 33.9611 100.858C37.7839 100.437 38.3688 100.695 35.9827 101.75C32.8238 103.146 30.8326 103.451 30.3972 102.606ZM26.2118 101.823C25.3778 101.421 24.6956 100.898 24.6956 100.661C24.6956 99.7731 27.1827 100.276 28.4415 101.418C29.9681 102.804 28.7163 103.031 26.2118 101.823ZM21.994 99.0091C21.0847 97.6943 21.7978 97.4196 23.2513 98.5249C23.8067 98.9472 23.9028 99.4151 23.4961 99.7166C23.1279 99.9897 22.4519 99.6711 21.994 99.0091H21.994ZM26.3735 99.0672C25.2653 98.5066 23.349 97.0268 22.1149 95.7787C20.7666 94.415 19.9245 93.9631 20.0047 94.6463C20.0781 95.2716 20.1023 96.4648 20.0583 97.2975C19.9912 98.5702 19.8122 98.646 18.9358 97.7732C18.158 96.9984 18.0989 96.5821 18.703 96.134C19.2702 95.7134 18.9474 94.9044 17.6257 93.4344C16.5878 92.2801 15.9565 91.3357 16.2228 91.3357C16.4891 91.3357 16.051 90.3349 15.2492 89.1119C14.0236 87.2423 11.8922 82.1736 11.8922 81.1286C11.8922 80.9606 12.1897 80.8231 12.5533 80.8231C12.9168 80.8231 13.41 81.7588 13.6492 82.9025C13.8884 84.0462 15.1508 86.8664 16.4544 89.1697C19.3887 94.3535 19.2221 94.1303 19.7153 93.5383C19.9412 93.2673 19.1527 91.3148 17.963 89.1995C15.214 84.3112 13.1789 78.3966 14.2458 78.3966C14.5462 78.3966 16.1721 82.6241 16.5784 84.4615C16.6768 84.9064 17.3304 86.2362 18.0309 87.4167C18.7314 88.5973 19.3046 89.8059 19.3046 90.1026C19.3046 91.1227 21.3164 93.0552 21.9157 92.6108C22.2456 92.3661 23.2812 92.8887 24.2172 93.7721C26.0627 95.5142 27.3909 95.8502 27.3909 94.5749C27.3909 93.6718 29.7687 93.9128 30.5744 94.8976C30.8619 95.2491 30.4907 95.416 29.7494 95.2687C29.0082 95.1212 28.4017 95.3588 28.4017 95.7962C28.4017 96.6456 28.6365 96.7267 31.771 96.9594C33.532 97.0902 33.6189 97.1991 32.4449 97.8045C31.3155 98.3869 31.4519 98.5087 33.2872 98.5564C34.4917 98.5883 35.4773 99.006 35.4773 99.4861C35.4773 100.517 31.2219 99.6193 30.8726 98.5147C30.749 98.1241 29.9909 97.81 29.1879 97.8168C28.112 97.8265 27.9684 98.0121 28.6422 98.5244C30.2171 99.722 28.4868 100.136 26.3735 99.0667L26.3735 99.0672ZM27.7154 97.8295C28.0564 97.1673 26.8162 96.2601 22.3371 93.8954C21.9664 93.6999 22.3896 94.4882 23.2773 95.6474C24.1651 96.8067 25.1296 97.5784 25.4208 97.3625C25.7119 97.1466 26.1406 97.3402 26.3734 97.7918C26.9019 98.818 27.2018 98.8265 27.7153 97.8295H27.7154ZM40.0504 98.1045C41.2416 96.9858 42.2162 95.5265 42.2162 94.8615C42.2162 94.0535 42.6294 93.81 43.4627 94.1274C44.4287 94.4954 44.868 94.0072 45.4155 91.9581C45.9934 89.7945 46.1343 89.652 46.1906 91.1737C46.2285 92.1965 45.8356 94.0168 45.3176 95.2189C44.1577 97.9107 41.5424 100.876 41.5424 99.5C41.5424 98.9169 41.2004 98.7746 40.7001 99.1496C38.6002 100.724 38.1068 99.93 40.0504 98.1046L40.0504 98.1045ZM43.5862 96.592C44.5006 95.0959 44.4863 95.0578 43.3955 96.0845C42.7469 96.6948 42.2162 97.5744 42.2162 98.0388C42.2162 98.5032 42.302 98.7316 42.4069 98.5463C42.5118 98.361 43.0424 97.4815 43.5862 96.592ZM47.9922 98.1516C47.7334 96.9142 47.8433 95.5808 48.2437 95.1003C48.6348 94.6309 48.9595 93.3189 48.9651 92.1847C48.9706 91.0506 49.2694 89.5768 49.6287 88.9097C50.7512 86.8252 50.4247 92.2485 49.2673 94.9119C48.4498 96.7931 48.4151 97.4047 49.0974 97.9107C49.7276 98.3781 49.7555 98.785 49.2031 99.4478C48.6507 100.111 48.3302 99.7677 47.9922 98.1516H47.9922ZM36.1512 98.6137C36.1512 98.1689 35.7613 97.805 35.2848 97.805C34.2593 97.805 34.0998 94.6265 35.1163 94.4471C35.5002 94.3793 36.1175 94.2714 36.4881 94.207C38.0115 93.9428 40.1943 91.6607 40.1943 90.3324C40.1943 88.6949 41.0456 88.5339 43.0154 89.799C44.0254 90.4476 44.2755 90.4464 43.9396 89.7894C43.4459 88.8306 44.7712 83.3681 45.8219 82.0309C46.2295 81.5123 46.318 81.7004 46.0686 82.5557C45.8548 83.2889 45.3114 86.1363 44.8611 88.8832C44.4066 91.6557 43.8234 93.4525 43.5503 92.9221C43.1739 92.1913 42.9432 92.19 42.5689 92.9124C42.2997 93.4351 41.6886 93.6825 41.2108 93.4625C40.733 93.2424 39.6702 93.8136 38.8491 94.7317C37.7299 95.9829 37.2262 96.1488 36.8378 95.3945C36.4696 94.6797 36.1861 94.6476 35.8587 95.2833C35.6051 95.7761 35.6543 96.1787 35.9679 96.1787C36.2816 96.1787 36.5839 96.9066 36.6397 97.7961C36.6956 98.6857 36.6084 99.4134 36.4462 99.4134C36.2839 99.4134 36.1511 99.0495 36.1511 98.6047L36.1512 98.6137ZM42.4612 90.349C42.2098 89.861 41.82 89.9764 41.4681 90.6428C40.5471 92.3872 40.7759 93.243 41.8715 92.1517C42.4234 91.6022 42.6887 90.7909 42.4612 90.349H42.4612ZM37.4989 98.1193C37.4989 97.5226 40.3847 94.6322 41.0155 94.5973C41.2818 94.5827 41.341 95.0668 41.1469 95.6738C40.7939 96.7776 37.4989 98.9866 37.4989 98.1193H37.4989ZM31.7711 95.379C31.542 94.9342 31.6578 94.5703 32.0285 94.5703C32.3991 94.5703 32.8897 94.9342 33.1188 95.379C33.3478 95.8237 33.232 96.1877 32.8614 96.1877C32.4907 96.1877 32.0001 95.8237 31.7711 95.379ZM50.3023 95.4749C50.3023 95.0301 50.6055 94.4413 50.9761 94.1665C51.3467 93.8916 51.65 94.0306 51.65 94.4755C51.65 94.9202 51.3467 95.509 50.9761 95.7839C50.6055 96.0587 50.3023 95.9196 50.3023 95.4749ZM11.2186 94.1187C11.2186 93.4253 11.5218 93.0829 11.8924 93.3578C12.2631 93.6326 12.5663 94.2001 12.5663 94.6185C12.5663 95.0371 12.2631 95.3795 11.8924 95.3795C11.5218 95.3795 11.2186 94.8121 11.2186 94.1187ZM15.507 93.43C9.91631 84.374 8.6041 81.6323 9.86036 81.6323C10.202 81.6323 11.0106 82.9969 11.6572 84.6648C12.3039 86.3327 13.0021 87.8792 13.2088 88.1016C14.3657 89.3461 17.3691 94.7374 17.0912 95.0708C16.9107 95.2875 16.1978 94.5492 15.507 93.4301V93.43ZM61.8112 94.2339C61.782 93.3815 61.9412 92.9037 62.1651 93.1725C62.389 93.4412 62.413 94.1387 62.2183 94.7225C62.0032 95.3675 61.8435 95.176 61.8112 94.2339H61.8112ZM24.702 92.5581C24.244 91.8959 23.6004 91.5533 23.2717 91.7971C22.9431 92.0408 22.6742 91.673 22.6742 90.9796C22.6742 89.3264 22.7949 89.3642 25.0964 91.7395C26.1732 92.8509 26.7124 93.7607 26.2945 93.7612C25.8766 93.7617 25.16 93.2203 24.702 92.5581ZM59.7367 93.4569C59.7367 93.289 60.1985 92.6915 60.7629 92.1294C61.6209 91.2748 61.7195 91.3249 61.3646 92.4348C61.0022 93.5683 59.7366 94.3629 59.7366 93.4569H59.7367ZM51.2189 91.5383C52.1087 87.764 52.4432 81.4484 51.7251 81.9808C51.3132 82.2863 50.9762 83.6279 50.9762 84.9622C50.9762 86.2965 50.7317 87.207 50.4328 86.9853C49.5116 86.302 50.3598 80.8236 51.3868 80.8236C51.9022 80.8236 52.3239 80.0957 52.3239 79.2063C52.3239 78.3167 52.5735 77.5889 52.8787 77.5889C53.4192 77.5889 53.3128 84.4608 52.7222 87.6973C52.5598 88.5868 52.4038 90.1333 52.3754 91.1341C52.3471 92.1349 52.0002 92.9536 51.6046 92.9536C51.209 92.9536 51.0355 92.3168 51.219 91.5385L51.2189 91.5383ZM9.42947 90.8969C9.21001 90.2105 9.18101 89.4684 9.36505 89.2476C9.54907 89.0267 9.86138 89.5882 10.0591 90.4954C10.479 92.4225 10.0124 92.7199 9.42948 90.8969H9.42947ZM11.6677 90.797C11.4206 90.5005 11.2185 89.882 11.2185 89.4223C11.2185 88.9156 11.5323 88.9633 12.0159 89.5436C12.4545 90.07 12.6566 90.6886 12.4651 90.9184C12.2736 91.1481 11.9148 91.0936 11.6677 90.797ZM18.4446 85.5136C17.4353 83.6455 16.6094 81.5228 16.6094 80.7965C16.6094 80.0701 16.3985 79.2226 16.1407 78.9132C15.8829 78.6038 15.6006 77.7678 15.5135 77.0554C15.2653 75.0261 16.1983 76.7832 17.9436 81.6321C18.8241 84.0784 20.1307 86.7166 20.847 87.495C21.7626 88.4898 21.8718 88.9101 21.2147 88.9101C20.7005 88.9101 19.454 87.3817 18.4446 85.5136H18.4446ZM9.53377 86.4841C9.30471 86.0394 9.43843 85.6755 9.83093 85.6755C10.2234 85.6755 10.5446 86.0394 10.5446 86.4841C10.5446 86.929 10.4108 87.2928 10.2474 87.2928C10.084 87.2928 9.76283 86.929 9.53377 86.4841H9.53377ZM62.4313 86.1276C62.4313 84.7072 62.8357 84.4981 63.4133 85.6196C63.6265 86.0337 63.4928 86.6011 63.1161 86.8803C62.7395 87.1597 62.4313 86.8212 62.4313 86.1276H62.4313ZM7.54075 84.9227C7.32752 84.5087 7.46125 83.9413 7.83792 83.6621C8.21459 83.3826 8.52277 83.7212 8.52277 84.4148C8.52277 85.8352 8.11841 86.0444 7.54079 84.9227H7.54075ZM28.0795 83.8908C24.2477 82.1256 22.6718 80.3437 20.2105 74.9927C19.4074 73.2466 18.5612 72.2174 18.3176 72.6903C17.5728 74.1366 16.7818 73.6441 16.4441 71.5239C16.267 70.4119 16.3832 69.5022 16.7025 69.5022C17.0217 69.5022 17.2829 70.0481 17.2829 70.7152C17.2829 71.3824 17.5861 71.9282 17.9567 71.9282C18.8107 71.9282 18.8173 70.1968 17.9734 67.5332C17.6119 66.3923 16.848 65.4589 16.2759 65.4589C15.4802 65.4589 15.3423 64.936 15.6896 63.2351C15.9393 62.012 16.3999 60.8899 16.7132 60.7417C17.6364 60.3049 17.3642 58.9896 16.3506 58.9896C15.3742 58.9896 14.6122 61.3608 14.5966 64.4481C14.5912 65.4488 14.2861 66.2676 13.9178 66.2676C13.5495 66.2676 13.3494 65.6308 13.4732 64.8524C14.5498 58.0811 14.7284 57.5679 15.883 57.9303C16.5611 58.1431 17.0623 57.8465 17.0679 57.2292C17.0834 55.5041 20.0889 47.6684 20.7351 47.6684C21.6343 47.6684 21.4407 48.9734 20.3857 50.0241C19.5255 50.8808 18.198 56.6582 18.7369 57.1996C18.8637 57.3271 18.5126 57.7764 17.9567 58.1981C17.379 58.6363 17.2837 58.9702 17.7342 58.9773C18.188 58.985 18.4902 60.1046 18.4464 61.6178C18.1468 71.9722 23.4347 81.79 30.0985 83.2527C31.5743 83.5765 32.7925 83.6175 32.8059 83.3437C32.8633 82.164 36.0169 78.2924 36.3669 78.972C36.5791 79.384 35.9985 80.6971 35.0768 81.8899C34.155 83.0829 33.6406 84.0644 33.9336 84.0712C34.2266 84.0809 34.0114 84.4363 33.4555 84.8675C32.1819 85.8552 32.4469 85.9034 28.0795 83.8915L28.0795 83.8908ZM17.0546 62.0757C16.8676 61.5197 16.7147 61.9746 16.7147 63.0866C16.7147 64.1985 16.8676 64.6533 17.0546 64.0974C17.2415 63.5415 17.2415 62.6317 17.0546 62.0757ZM6.51963 80.5323C5.67286 77.8597 5.62935 76.0251 6.41261 76.0251C7.02963 76.0251 8.0205 81.7489 7.50961 82.362C7.3461 82.5581 6.90059 81.7348 6.51956 80.5323H6.51963ZM39.9972 81.0925C39.3806 79.7729 40.3709 74.4078 41.2311 74.4078C41.8796 74.4078 41.9792 75.0112 41.598 76.6316C41.3103 77.8547 41.1959 79.2769 41.3437 79.7922C41.6509 80.8626 40.4374 82.0345 39.9972 81.0925H39.9972ZM62.7994 80.675C62.4019 79.1488 61.47 73.3591 61.4001 71.9818C61.2979 69.9667 58.9776 62.1186 57.2841 58.0597C56.4088 55.962 54.3282 52.4019 52.6603 50.1483C50.9924 47.8947 49.6395 45.6081 49.6537 45.067C49.668 44.5259 51.0263 45.9026 52.6722 48.1265C54.3182 50.3504 55.6711 51.7365 55.6787 51.2068C55.6863 50.6771 55.3893 50.0188 55.0187 49.7439C54.6481 49.469 54.3449 48.8571 54.3449 48.3841C54.3449 47.8418 54.7183 47.896 55.3557 48.5308C55.9116 49.0845 56.3665 50.0603 56.3665 50.6993C56.3665 51.3382 56.6208 51.6723 56.9316 51.4418C57.2425 51.2113 58.1716 52.4634 58.9963 54.2244C59.821 55.9854 60.7284 57.4261 61.0127 57.4261C61.297 57.4261 61.9298 58.3234 62.4189 59.4202C62.908 60.5169 63.6126 61.1884 63.9846 60.9125C64.3566 60.6366 64.478 60.7661 64.2544 61.2002C64.0308 61.6344 64.2692 62.9644 64.7842 64.1556C65.2992 65.3468 65.4258 66.3214 65.0655 66.3214C64.7052 66.3214 64.2217 65.6846 63.9911 64.9062C63.4211 62.9826 56.2374 51.6506 55.8689 52.0933C55.7069 52.2878 56.164 53.4762 56.8847 54.7342C57.6055 55.9923 58.7068 58.0339 59.3322 59.2712C59.9575 60.5084 60.7141 61.3392 61.0134 61.1172C61.3127 60.8952 61.9393 62.2482 62.406 64.1239C62.8726 65.9996 63.5999 67.8015 64.0222 68.1283C64.5715 68.5533 64.5462 68.726 63.9333 68.7348C63.1364 68.7464 62.4611 67.3381 61.4597 63.5772C61.2355 62.7353 60.9072 62.2203 60.7301 62.4328C60.553 62.6453 61.0261 65.6996 61.7814 69.22C62.5367 72.7404 63.255 76.9855 63.3776 78.6534C63.5975 81.6457 63.3126 82.6431 62.7999 80.675L62.7994 80.675ZM8.95338 80.316C8.71637 80.0316 8.52711 79.0408 8.53278 78.1141C8.54127 76.7251 8.65956 76.6424 9.20666 77.6425C9.7564 78.6474 9.94521 78.5262 10.3075 76.9363L10.7447 75.0171L11.6312 76.9363C12.7108 79.273 12.7769 80.0685 11.8918 80.0685C11.5211 80.0685 11.2179 79.5011 11.2179 78.8077C11.2179 78.1143 10.9097 77.7756 10.533 78.0549C10.1564 78.3342 10.0097 78.8765 10.2071 79.2598C10.6469 80.1137 9.55286 81.0354 8.95334 80.316H8.95338ZM42.5157 77.5721C42.2667 77.0884 42.385 76.3064 42.7786 75.8341C43.2835 75.2282 43.462 75.487 43.3851 76.7132C43.2609 78.6917 43.1492 78.802 42.5157 77.5721ZM13.1872 77.4403C12.9046 76.3321 12.489 73.6514 12.3725 72.1846C12.293 71.1841 12.0764 70.3652 11.891 70.3647C11.7057 70.3642 11.4615 67.4527 11.3482 63.8947C11.235 60.3369 11.3866 57.4272 11.6852 57.429C11.9837 57.4309 12.2853 59.9476 12.3553 63.0219C12.4676 67.9522 13.1955 72.8416 14.359 76.48C14.5634 77.1194 14.395 77.6426 13.9847 77.6426C13.5744 77.6426 13.2156 77.5515 13.1872 77.4404L13.1872 77.4403ZM9.75511 72.9926C9.60574 72.2143 9.68208 70.3038 9.92473 68.7471C10.1697 67.1753 10.4054 66.6809 10.4547 67.6352C10.5034 68.5803 10.7329 70.4908 10.9645 71.8807C11.4032 74.5132 10.2503 75.5731 9.75507 72.9926H9.75511ZM14.7104 72.3896C14.2875 71.2758 14.2029 70.3645 14.5224 70.3645C15.0819 70.3645 16.0901 73.6817 15.6801 74.1738C15.5697 74.3062 15.1333 73.5034 14.7105 72.3896H14.7104ZM5.63815 72.5221C4.88729 70.2311 5.0097 69.0608 5.88972 70.1169C6.2951 70.6034 6.51357 71.6768 6.37521 72.5024C6.13257 73.9502 6.10641 73.9509 5.63816 72.5218L5.63815 72.5221ZM7.93048 73.5991C7.85717 73.3767 7.62874 71.7392 7.42287 69.9601C7.13917 67.5087 7.2388 66.9454 7.83434 67.6335C8.26652 68.1329 8.49495 69.7704 8.34195 71.2724C8.18896 72.7745 8.00379 73.8215 7.93048 73.5991ZM3.1843 71.6448C3.15506 70.7924 3.31431 70.3148 3.53823 70.5835C3.76214 70.8522 3.78608 71.5497 3.59146 72.1334C3.37635 72.7785 3.21667 72.587 3.18434 71.6448H3.1843ZM27.1021 71.011C26.4514 69.8962 26.3163 69.0441 26.7403 68.7295C27.1126 68.4534 27.3353 67.3437 27.2353 66.2635C27.1008 64.8113 27.3475 64.3578 28.1819 64.5232C28.8026 64.6461 29.5317 64.3169 29.8023 63.7917C30.112 63.1902 30.0043 63.0516 29.5114 63.4172C28.291 64.3223 27.7825 61.5904 28.7625 59.3929C29.9076 56.8251 30.3838 56.9113 31.5919 59.9049C33.0811 63.5948 32.4264 72.7905 30.6746 72.7905C30.3071 72.7905 30.1787 72.4559 30.3893 72.047C30.8083 71.2334 29.0203 68.7471 28.0162 68.7471C27.0058 68.7471 27.2993 70.3732 28.4013 70.8807C28.9572 71.1367 29.4121 71.6712 29.4121 72.0683C29.4121 73.3896 28.1545 72.814 27.1022 71.011L27.1021 71.011ZM31.2799 63.8774C30.8404 58.3887 30.0845 57.4755 29.1147 61.2619C28.7469 62.6977 28.8701 62.975 29.7048 62.5906C30.4845 62.2316 30.7597 62.6196 30.7597 64.0782C30.7597 66.718 30.1397 67.31 28.9146 65.8398C27.7147 64.3999 27.1909 64.7565 27.7835 66.6097C28.0221 67.3559 28.953 67.9385 29.9066 67.9385C31.5395 67.9385 31.5924 67.782 31.2798 63.8774H31.2799ZM63.5539 72.2513C63.3068 71.9549 63.1047 71.3362 63.1047 70.8766C63.1047 70.3699 63.4185 70.4176 63.9021 70.9979C64.3406 71.5243 64.5428 72.1429 64.3513 72.3727C64.1598 72.6024 63.801 72.5479 63.5539 72.2513ZM13.9054 68.3765C13.9054 66.956 14.3097 66.7469 14.8874 67.8685C15.1006 68.2826 14.9669 68.8499 14.5902 69.1293C14.2135 69.4087 13.9054 69.0702 13.9054 68.3765H13.9054ZM5.14551 66.3907C5.14551 64.8822 5.42572 63.99 5.80996 64.275C6.51805 64.8002 6.38947 67.5064 5.61211 68.4392C5.35548 68.7473 5.1455 67.8253 5.1455 66.3907H5.14551ZM15.9275 67.4689C15.9275 66.7755 16.2307 66.433 16.6013 66.7079C16.972 66.9828 17.2752 67.5501 17.2752 67.9687C17.2752 68.3872 16.972 68.7296 16.6013 68.7296C16.2307 68.7296 15.9275 68.1623 15.9275 67.4689ZM22.9674 67.99C23.1769 67.5832 23.0336 67.1245 22.6489 66.9706C22.2642 66.8167 21.9689 64.8753 21.9926 62.6561C22.0163 60.437 22.0293 57.8025 22.0215 56.8017C22.0137 55.801 22.3192 54.9822 22.7003 54.9822C23.1266 54.9822 23.3015 56.9273 23.1547 60.0364C22.993 63.46 23.2268 65.6775 23.8793 66.9101C24.7384 68.5327 24.7206 68.7296 23.7146 68.7296C23.0942 68.7296 22.758 68.3967 22.9674 67.99H22.9674ZM25.1369 67.3818C24.8898 67.0853 24.6969 66.2666 24.7081 65.5623C24.725 64.5108 24.8565 64.5458 25.4438 65.7577C26.1694 67.2551 25.959 68.3684 25.1369 67.3818H25.1369ZM2.99905 66.6926C2.74833 66.3917 2.72547 65.5755 2.94824 64.8789C3.24348 63.9556 3.09392 63.79 2.39642 64.268C1.6532 64.7772 1.61447 64.6963 2.22294 63.9053C3.38218 62.3984 4.2773 63.2025 3.8385 65.3564C3.6275 66.3921 3.24974 66.9934 2.999 66.6926H2.99905ZM8.56826 65.9667C8.53901 65.1142 8.69827 64.6366 8.92218 64.9053C9.14609 65.174 9.17004 65.8715 8.97542 66.4552C8.7603 67.1004 8.60063 66.9087 8.56829 65.9667H8.56826ZM9.46394 64.0798C9.16526 63.3014 8.89109 61.0941 8.85467 59.1748C8.81484 57.0764 8.3981 55.3885 7.80941 54.9417C6.99703 54.325 7.03109 54.1964 8.00966 54.1861C9.06864 54.1749 9.49655 53.2775 9.26867 51.5455C9.2248 51.2119 9.52455 50.939 9.93483 50.939C10.3451 50.939 10.4954 51.5186 10.2689 52.2272C10.0423 52.9356 9.67293 54.3953 9.44794 55.471C9.1103 57.0854 9.24207 57.3331 10.2031 56.8906C11.2295 56.4179 11.2696 56.5734 10.5418 58.2053C10.0878 59.2233 9.88185 61.28 10.0841 62.7756C10.4917 65.7896 10.2859 66.2222 9.46385 64.0798L9.46394 64.0798ZM24.1988 62.2603C24.0999 60.6841 24.7282 60.1527 25.5394 61.1263C26.0234 61.7071 25.4075 63.8775 24.7587 63.8775C24.5066 63.8775 24.2547 63.1497 24.1988 62.2602L24.1988 62.2603ZM3.09987 60.2386C2.91713 56.8492 3.14852 54.6937 3.78022 53.9011C4.0769 53.5288 4.17721 54.9845 4.00311 57.1358C3.59635 62.162 3.26496 63.3003 3.09984 60.2386H3.09987ZM6.93526 60.3454C6.65626 59.0698 6.58723 57.8349 6.78185 57.6014C7.32444 56.9503 7.98774 59.5546 7.69892 61.2021C7.50992 62.2803 7.30927 62.0552 6.93528 60.3453L6.93526 60.3454ZM12.8952 59.8343C12.6662 59.3895 12.7999 59.0256 13.1924 59.0256C13.5849 59.0256 13.906 59.3895 13.906 59.8343C13.906 60.2791 13.7723 60.6429 13.6089 60.6429C13.4454 60.6429 13.1243 60.2791 12.8952 59.8343H12.8952ZM0.428635 58.2647C0.428635 57.8462 0.731874 57.2789 1.1025 57.0039C1.47312 56.7291 1.77636 57.0715 1.77636 57.7649C1.77636 58.4583 1.47312 59.0257 1.1025 59.0257C0.731874 59.0257 0.428635 58.6832 0.428635 58.2647ZM5.14567 56.5519C5.14567 55.1914 5.40824 54.273 5.72916 54.511C6.272 54.9136 5.97587 59.0257 5.40404 59.0257C5.26194 59.0257 5.14567 57.9126 5.14567 56.5519ZM11.8169 56.3301C11.5111 53.8834 11.8102 51.7657 12.7737 49.5641C14.0548 46.6355 14.1442 46.0871 13.3402 46.0871C13.029 46.0871 12.3828 47.0879 11.9041 48.311C11.4084 49.5776 10.9035 50.1031 10.7312 49.5317C10.2871 48.0598 12.8829 44.3743 13.6854 45.3374C14.1056 45.8416 14.6607 45.3951 15.2463 44.0818C15.7462 42.9609 16.4072 42.0438 16.7152 42.0438C17.5904 42.0438 17.3731 43.3657 16.3265 44.408C15.0136 45.7155 13.1739 50.5597 12.8601 53.5356C12.6177 55.8341 11.9713 57.5656 11.8169 56.3302V56.3301ZM13.6832 54.578C14.8669 47.6654 20.9277 38.0056 25.1239 36.3442C27.9706 35.2168 27.7494 34.557 24.7649 35.2734C23.5771 35.5585 21.6425 37.0165 20.4658 38.5136C18.2935 41.2774 17.2752 41.888 17.2752 40.4269C17.2752 39.9821 17.7301 39.6183 18.286 39.6183C18.842 39.6183 19.2968 39.2544 19.2968 38.8096C19.2968 36.614 16.3445 39.1935 15.5894 42.049C15.3548 42.9359 14.7178 43.6615 14.1738 43.6615C12.8611 43.6615 13.7537 41.702 16.7036 38.1072C18.4975 35.9214 18.6749 35.4437 17.6017 35.6895C16.2074 36.0089 11.878 42.8997 10.125 47.59C9.56677 49.0835 8.95382 50.1181 8.76292 49.889C8.57199 49.6598 8.86157 48.4379 9.40644 47.1734C9.95131 45.909 10.4653 44.5106 10.5488 44.0657C10.6322 43.621 11.4217 42.2284 12.3033 40.9713C13.1848 39.7141 13.9061 38.2259 13.9061 37.6642C13.9061 37.1026 14.5884 36.2404 15.4223 35.7482C16.2562 35.256 17.9998 34.0665 19.297 33.1046C21.4294 31.5235 21.4949 31.5141 19.9809 33.0057C17.1078 35.8363 18.7684 35.4401 23.3371 32.2049C25.7446 30.5002 27.2607 29.0999 26.7065 29.0931C25.814 29.0821 25.8143 28.991 26.7091 28.2968C27.5504 27.6444 27.4939 27.4998 26.3722 27.4348C25.2673 27.3709 25.3612 27.1778 26.8935 26.3634C27.9215 25.817 28.5371 25.0995 28.2617 24.769C27.9863 24.4385 28.2823 24.4082 28.9197 24.7017C29.6333 25.0303 30.0784 24.8483 30.0784 24.2278C30.0784 23.4852 31.1856 23.3333 34.29 23.6503C37.5316 23.9812 38.1524 23.8854 36.9854 23.2346C35.1263 22.1978 35.0293 21.3655 36.7675 21.3655C37.4815 21.3655 37.8895 21.7076 37.6742 22.1258C37.4588 22.544 37.5644 22.6772 37.9088 22.4217C39.2172 21.4513 43.0736 23.0708 43.6117 24.8167C44.1197 26.4647 44.035 26.5142 42.0956 25.7028C40.5324 25.0488 39.915 25.0891 39.5123 25.871C39.1497 26.575 38.3769 26.6987 37.0577 26.2641C35.1994 25.6519 31.3747 25.783 27.9483 26.5763C27.4109 26.7008 27.5719 28.3438 28.2488 29.643C28.5186 30.1609 28.3585 30.7883 27.8929 31.0369C27.4273 31.2856 28.1077 31.4192 29.4049 31.3339C30.9546 31.2318 31.7056 31.5164 31.5949 32.1637C31.4974 32.7341 32.1524 33.1488 33.1509 33.1488C34.1289 33.1488 34.695 32.7988 34.4588 32.3402C34.2298 31.8954 34.4677 31.5315 34.9874 31.5315C36.3912 31.5315 43.6052 34.6171 44.6619 35.6695C45.1962 36.2017 45.5776 36.2503 45.5776 35.7862C45.5776 35.0648 42.597 33.0614 38.1651 30.8038C36.7302 30.0729 36.8775 30.0217 39.159 30.4584C40.6321 30.7404 42.2458 31.4611 42.7448 32.0599C43.2439 32.6588 43.9675 33.1489 44.3529 33.1489C44.7383 33.1489 46.5482 34.6505 48.3749 36.4859C50.2016 38.3213 51.8502 39.6381 52.0385 39.4122C52.4739 38.8896 46.1544 32.3524 45.2069 32.3454C44.8178 32.3425 44.1452 31.9152 43.7124 31.3958C42.5618 30.015 38.1578 28.323 35.6778 28.309C34.4952 28.3022 33.3401 27.9329 33.1111 27.4882C32.1008 25.5266 41.9614 28.3877 45.5309 31.092C49.3128 33.9571 57.0328 42.8103 57.0328 44.2827C57.0328 45.167 56.6468 44.9649 55.6976 43.5835C54.9633 42.5147 54.0513 41.1979 53.671 40.6572C53.2908 40.1165 52.5071 39.8917 51.9295 40.1577C51.276 40.4586 50.0052 39.6246 48.5652 37.9497C47.2924 36.4694 46.2511 35.6332 46.2511 36.0917C46.2511 36.5502 47.1608 37.8981 48.2726 39.087C49.3845 40.2759 50.2942 41.6341 50.2942 42.1054C50.2942 42.6039 50.8775 42.7402 51.6889 42.4311C52.754 42.0254 53.6932 42.6689 55.6635 45.1545C57.0824 46.9445 58.4232 48.1932 58.6431 47.9295C58.8629 47.6657 58.7135 46.9737 58.311 46.3917C57.9086 45.8098 57.7198 44.8666 57.8916 44.2957C58.0793 43.6719 58.5512 44.1451 59.0743 45.4815C59.553 46.7045 60.1478 47.7053 60.3961 47.7053C60.6444 47.7053 61.8275 49.3429 63.0252 51.3443C64.223 53.3457 64.9922 54.9833 64.7347 54.9833C64.1938 54.9833 62.0516 52.1672 60.5877 49.5318C60.034 48.5349 59.3054 47.9235 58.9686 48.1733C58.6318 48.4231 59.044 49.7308 59.8846 51.0794C62.9555 56.0058 63.2502 56.6007 62.6202 56.6007C62.2672 56.6007 61.05 55.054 59.9153 53.1638C57.6273 49.3524 55.4463 46.5031 52.956 44.0721L51.3051 42.4606L52.9362 44.6754C53.8333 45.8936 54.363 47.1355 54.1133 47.4352C53.8635 47.735 52.1089 45.9116 50.214 43.3834C44.957 36.3692 40.7793 33.3623 39.9398 35.988C39.6987 36.742 39.8716 37.2055 40.3654 37.1294C40.8228 37.0587 41.673 37.0442 42.2549 37.0968C43.6851 37.2263 49.0126 42.7738 48.8289 43.9421C48.7482 44.4551 48.9257 45.7391 49.2233 46.7954C50.1535 50.0965 48.2368 50.5646 46.0965 47.5589C44.1421 44.8143 44.0981 43.4857 46.0239 45.3662C47.0468 46.365 47.1239 46.3221 46.7064 44.9871C46.3517 43.8528 46.4867 43.5975 47.2541 43.9509C49.057 44.7811 48.2761 43.3279 45.4695 40.6295C42.6258 37.8954 41.534 37.4033 41.534 38.8558C41.534 39.3358 40.8801 39.1607 40.0422 38.4564C39.2216 37.7667 37.0313 36.9606 35.1745 36.6651C32.7352 36.2767 32.1676 35.9715 33.1285 35.5646C33.86 35.255 35.3593 35.3103 36.4603 35.6875C37.9339 36.1925 38.7278 36.0548 39.4686 35.1657C40.0733 34.4402 40.1708 33.958 39.713 33.958C39.2938 33.958 38.8353 34.374 38.694 34.8826C38.5013 35.5763 38.0777 35.5763 36.9975 34.8826C36.2057 34.374 34.4766 33.958 33.155 33.958C31.8334 33.958 30.7522 33.594 30.7522 33.1493C30.7522 32.7045 30.4584 32.3406 30.0994 32.3406C29.7405 32.3406 29.6402 32.9774 29.8768 33.7558C30.2824 35.0904 30.2324 35.0928 28.9979 33.7967C28.097 32.8509 27.3786 32.6579 26.6936 33.1778C25.9499 33.7422 25.9233 33.9363 26.5887 33.9456C27.0784 33.9523 27.8988 34.4616 28.4117 35.0771C29.2059 36.0302 29.0478 36.2674 27.3466 36.6756C25.2929 37.1685 21.3847 40.0785 20.4609 41.8024C20.1747 42.3364 19.5683 43.2603 19.1131 43.8554C18.1943 45.057 16.601 48.2609 16.601 48.9073C16.601 49.1357 16.9043 49.3225 17.2749 49.3225C17.6455 49.3225 17.9487 48.8652 17.9487 48.3064C17.9487 46.4542 23.6331 39.6863 26.2905 38.3743C29.6909 36.6954 38.4399 37.1061 36.1086 38.8352C35.6573 39.17 34.391 39.1351 33.2947 38.7577C28.4217 37.0806 22.2875 41.1268 19.3275 47.9703C18.645 49.5483 17.9702 50.1156 17.1004 49.8426C16.2052 49.5616 15.6696 50.0613 15.205 51.6107C14.8489 52.7985 14.2671 54.4982 13.9122 55.3877C13.4036 56.6623 13.3549 56.491 13.6823 54.5791L13.6832 54.578ZM25.6671 32.7436C27.7576 30.8174 26.2661 31.3356 23.34 33.5523C21.8723 34.6642 20.3621 35.574 19.9841 35.574C19.6061 35.574 19.2969 36.1089 19.2969 36.7626C19.2969 37.9208 21.6813 36.4165 25.6672 32.7436L25.6671 32.7436ZM33.6164 24.5258C33.1531 24.3015 32.395 24.3015 31.9318 24.5258C31.4685 24.7501 31.8475 24.9337 32.7741 24.9337C33.7007 24.9337 34.0797 24.7501 33.6164 24.5258ZM15.4598 54.1873C15.8795 52.853 16.4596 51.7613 16.749 51.7613C17.4492 51.7613 17.4161 52.1225 16.4931 54.5535C15.3969 57.4407 14.5328 57.1344 15.4598 54.1873H15.4598ZM0.858881 52.9743C1.07222 52.3071 1.70629 51.7613 2.26795 51.7613C3.0993 51.7613 3.13321 51.9868 2.45028 52.9743C1.98889 53.6414 1.35481 54.1873 1.04121 54.1873C0.727604 54.1873 0.64555 53.6414 0.858881 52.9743ZM6.24066 50.9792C6.65463 48.2426 7.734 45.2947 8.61911 44.4833C8.86169 44.2609 9.11145 43.715 9.17414 43.2703C9.23681 42.8255 10.0337 40.824 10.9448 38.8226C12.1593 36.1547 13.9111 34.1585 17.5089 31.3424C20.208 29.2298 22.8516 27.5067 23.3835 27.5132C24.3052 27.5245 22.5303 28.9912 19.6336 30.6118C18.8924 31.0265 16.9046 32.8301 15.2164 34.6199C12.4053 37.5999 11.1783 40.0425 6.60502 51.761C5.87234 53.6385 5.84635 53.5828 6.24025 50.9789L6.24066 50.9792ZM7.53301 52.6258C7.31977 52.2118 7.4535 51.6444 7.83017 51.3651C8.20684 51.0857 8.51502 51.4244 8.51502 52.1178C8.51502 53.5382 8.11067 53.7474 7.53305 52.6258L7.53301 52.6258ZM48.6662 52.0498C48.1021 50.2857 48.8511 49.4656 49.647 50.9761C50.4439 52.4882 50.4609 53.3786 49.6928 53.3786C49.3618 53.3786 48.8998 52.7807 48.6662 52.0498H48.6662ZM3.79803 51.2062C3.79803 50.792 4.24324 49.7467 4.78735 48.8834C5.61854 47.5646 5.78014 47.5241 5.79814 48.6298C5.80994 49.3537 5.36472 50.3989 4.80882 50.9526C4.25288 51.5063 3.79803 51.6204 3.79803 51.2062ZM1.77644 50.342C1.77644 49.8972 2.2313 49.0804 2.78723 48.5267C3.35108 47.9651 3.79803 47.8775 3.79803 48.3286C3.79803 48.7734 3.34317 49.5903 2.78723 50.144C2.22339 50.7055 1.77644 50.7931 1.77644 50.342ZM0.428717 48.0927C0.428717 46.6496 2.26158 42.3587 3.62956 40.5992C4.09284 40.0033 4.47189 39.0141 4.47189 38.4008C4.47189 37.7875 5.00003 36.9311 5.6455 36.4975C6.291 36.064 6.62642 35.478 6.39083 35.1953C5.77777 34.4596 2.66683 38.3894 2.97736 39.5072C3.11985 40.0202 2.75632 40.4399 2.16951 40.4399C1.58269 40.4399 1.10253 40.8039 1.10253 41.2486C1.10253 41.6934 0.763307 42.0573 0.348689 42.0573C-0.78028 42.0573 2.79552 36.586 7.26256 31.4781C11.2113 26.9631 11.8353 25.8838 10.4967 25.8838C10.1042 25.8838 9.99948 26.304 10.2639 26.8175C10.5417 27.3568 10.4507 27.5329 10.0485 27.2346C9.66557 26.9506 7.5978 29.0434 5.45344 31.8853C2.98482 35.1569 1.19748 36.8878 0.580933 36.6039C-0.229025 36.2309 -0.203792 36.0286 0.730695 35.401C1.3486 34.986 3.7642 32.3315 6.09875 29.5024C9.13565 25.8219 10.5502 24.6065 11.0705 25.2308C11.5907 25.8551 12.1112 25.727 12.8998 24.7806C14.139 23.2935 14.5796 23.1312 14.5796 24.1618C14.5796 24.8962 10.7462 29.4905 7.84096 32.238C6.91444 33.1143 6.37013 34.0889 6.63159 34.4038C7.22657 35.1206 13.834 28.271 13.8754 26.8946C13.8921 26.3387 14.6172 25.8838 15.4868 25.8838C17.447 25.8838 21.4513 23.5619 21.0006 22.6866C20.6928 22.0891 24.2207 20.6382 27.9795 19.8166C28.8636 19.6233 29.7733 19.2195 30.0011 18.9193C30.2289 18.6191 29.4147 18.6022 28.1918 18.8818C26.6478 19.2348 26.1094 19.116 26.4302 18.4933C27.2613 16.8795 40.5185 19.1486 47.262 22.0589C48.3738 22.5387 50.8882 24.1869 52.8494 25.7216C56.1269 28.2863 57.7548 28.7484 56.7691 26.8345C55.8104 24.9728 44.5237 19.2584 39.0346 17.8557C35.7765 17.023 34.0206 16.3129 35.1325 16.2776C36.2443 16.2425 39.1251 16.7618 41.5341 17.4319C43.9432 18.1019 46.2932 18.7008 46.7566 18.7627C47.2199 18.8246 47.5989 19.1786 47.5989 19.5493C47.5989 19.9199 47.978 20.2254 48.4412 20.2281C48.9045 20.2311 50.1692 20.7874 51.2517 21.4648C52.3342 22.1422 53.4729 22.3928 53.7822 22.0216C54.0915 21.6505 53.1301 20.7038 51.6456 19.9179C50.1612 19.1319 48.9466 18.2044 48.9466 17.8567C48.9466 17.509 50.4628 18.0954 52.3159 19.1597C54.1691 20.224 55.6853 21.4659 55.6853 21.9196C55.6853 22.3734 55.403 22.5352 55.058 22.2794C54.7129 22.0235 54.2402 22.184 54.0074 22.636C53.7746 23.088 53.8588 23.4578 54.1946 23.4578C55.0465 23.4578 57.7068 26.3166 57.7068 27.232C57.7068 27.6469 57.3488 28.416 56.9111 28.9411C56.2995 29.6751 55.6372 29.4734 54.0472 28.0685C49.6889 24.2176 41.2779 20.55 35.2504 19.8718C33.5246 19.6777 31.8066 19.2919 31.4327 19.0146C31.0588 18.7372 30.7528 18.8956 30.7528 19.3666C30.7528 19.8377 30.2979 20.2231 29.742 20.2231C29.1861 20.2231 28.7312 20.5869 28.7312 21.0317C28.7312 21.9746 28.85 21.9773 32.5458 21.1183C34.8149 20.5909 35.281 20.6812 34.9898 21.5919C34.7919 22.2107 34.1366 22.6598 33.5337 22.59C30.0184 22.1825 27.3834 22.7275 27.3834 23.8622C27.3834 25.4286 26.4341 25.4127 25.3382 23.8279C24.7185 22.9319 24.2698 22.8275 23.7451 23.4572C23.2204 24.0869 23.2879 24.5364 23.9847 25.0532C24.7264 25.6033 24.4871 25.9069 22.9682 26.343C18.5392 27.6144 7.72319 37.7716 6.42115 41.8828C5.49552 44.8043 5.7541 45.9352 6.83085 43.6748C8.00075 41.2189 8.14338 41.9952 7.0509 44.8727C6.47554 46.3881 6.10847 46.6738 5.70317 45.9216C5.26143 45.1017 5.01437 45.1339 4.50898 46.0774C4.15851 46.7316 3.66044 47.0133 3.40213 46.7034C3.14385 46.3934 3.31611 45.5853 3.78493 44.9074C4.25374 44.2295 4.45154 43.6748 4.22448 43.6748C3.99742 43.6748 4.33933 42.88 4.98429 41.9086C6.8923 39.0349 13.9064 30.5323 13.9064 31.0922C13.9064 31.3761 14.2855 31.225 14.7488 30.7564C16.7882 28.6937 20.7885 25.8841 21.6857 25.8841C22.6597 25.8841 23.1288 24.2773 22.1612 24.2552C20.6824 24.2215 12.7313 30.0084 9.92381 33.1619C6.58679 36.9102 1.7766 45.2464 1.7766 47.2816C1.7766 47.9139 1.47336 48.6561 1.10274 48.931C0.732115 49.2059 0.428878 48.8286 0.428878 48.0926L0.428717 48.0927ZM27.3832 21.841C28.1709 21.2302 27.9849 21.0544 26.5409 21.0447C25.5217 21.0379 24.6878 21.3962 24.6878 21.841C24.6878 22.8635 26.0648 22.8635 27.3832 21.841ZM62.2557 47.6509C61.6071 46.7985 61.2289 46.101 61.4153 46.101C61.6016 46.101 60.5164 44.7591 59.0036 43.119C57.4909 41.4789 54.9883 38.7298 53.4423 37.01C51.8964 35.2902 48.6605 32.4492 46.2514 30.6969C41.6369 27.34 41.4427 26.3336 45.9564 29.168C50.7826 32.1986 51.6388 32.8971 51.1891 33.4368C50.9442 33.7307 51.0369 33.9711 51.3952 33.9711C51.7535 33.9711 52.3468 33.6108 52.7138 33.1704C53.1541 32.642 54.6319 33.4936 57.0602 35.675C59.0837 37.4929 60.8411 39.311 60.9654 39.7153C61.0897 40.1197 61.4687 40.2448 61.8077 39.9934C62.1467 39.742 62.424 40.349 62.424 41.3423V43.1483L60.6107 41.1878C59.6134 40.1096 57.5938 37.8773 56.1228 36.2272C54.6518 34.577 53.192 33.417 52.8787 33.6494C52.3949 34.0081 56.7252 39.6317 57.4853 39.6317C57.6303 39.6317 58.8517 41.071 60.1996 42.8303C61.5475 44.5894 62.8267 45.8981 63.0425 45.7382C63.2583 45.5784 63.4786 46.3224 63.532 47.3917C63.5854 48.4609 63.5854 49.3054 63.532 49.2683C63.4786 49.2313 62.9042 48.5034 62.2556 47.651L62.2557 47.6509ZM30.0793 35.581C30.0793 35.1362 30.3825 34.7723 30.7532 34.7723C31.1238 34.7723 31.427 35.1362 31.427 35.581C31.427 36.0258 31.1238 36.3897 30.7532 36.3897C30.3825 36.3897 30.0793 36.0258 30.0793 35.581ZM58.3035 34.8845C57.4196 34.0567 54.5932 31.6913 52.0225 29.6282C49.4519 27.565 47.7841 25.887 48.3163 25.8993C48.8485 25.9115 51.2485 27.5192 53.6495 29.4719C56.0504 31.4246 58.2948 32.8147 58.637 32.5609C58.9792 32.3071 58.7494 31.6522 58.1264 31.1055C57.1345 30.2351 57.1219 30.0527 58.0244 29.637C58.593 29.3751 59.0781 29.6041 59.1065 30.1478C59.1827 31.6044 59.5377 33.3774 60.0728 34.9744C60.6765 36.7763 60.3032 36.7573 58.3035 34.8845L58.3035 34.8845ZM1.11888 32.7114C1.09934 31.6491 5.65204 25.9214 8.82293 23.0186C11.0465 20.9833 11.8853 19.3827 10.7058 19.4257C10.4278 19.4357 8.40367 21.4342 6.2078 23.8666C4.01186 26.2989 2.10441 28.1561 1.96904 27.9937C1.49751 27.4278 6.72208 21.0246 7.6553 21.0246C8.17231 21.0246 8.4214 20.6869 8.20883 20.2741C7.99626 19.8614 8.43322 19.291 9.17983 19.0067C9.92645 18.7223 10.5373 18.1503 10.5373 17.7355C10.5373 17.3207 10.9408 16.9813 11.4339 16.9813C11.927 16.9813 13.8223 16.0394 15.6455 14.8881C17.5545 13.6828 18.2302 12.9866 17.2384 13.2468C13.7809 14.1538 9.45816 16.9691 6.60578 20.1714C4.99959 21.975 3.59165 23.4506 3.47702 23.4506C3.36244 23.4506 3.0686 22.8249 2.82405 22.0601C2.5795 21.2953 2.58692 20.9186 2.84056 21.223C3.43346 21.9345 5.8199 20.4191 5.8199 19.3311C5.8199 18.8757 5.46982 18.7628 5.04193 19.0802C4.55992 19.4377 4.44687 19.302 4.74477 18.7236C5.00922 18.2101 5.81416 17.79 6.53355 17.79C7.25293 17.79 7.84148 17.4582 7.84148 17.0527C7.84148 16.4372 13.7105 13.442 18.1181 11.8085C18.7667 11.5681 19.2927 10.7232 19.2871 9.93091C19.2787 8.76053 19.1627 8.7067 18.6686 9.6435C18.3341 10.2777 17.3533 10.9246 16.4889 11.0811C15.6245 11.2375 12.9984 12.4413 10.6531 13.7561C8.30786 15.0709 6.4884 15.7886 6.60997 15.351C6.73153 14.9134 7.06947 14.6463 7.36096 14.7575C7.65244 14.8687 8.15523 14.4465 8.4783 13.8192C9.12934 12.5551 14.8997 9.70511 16.8104 9.70405C17.4808 9.7037 17.8475 9.35012 17.6252 8.9184C17.4028 8.48667 18.0512 7.88337 19.0661 7.57775C20.2393 7.22438 21.006 7.36295 21.1714 7.95834C21.3145 8.47334 21.7419 8.89475 22.1213 8.89475C22.5007 8.89475 22.6481 8.38474 22.4487 7.76145C22.2257 7.06384 22.6513 6.44625 23.5559 6.15516C25.8772 5.40806 26.4692 5.6241 25.2204 6.7626C24.5864 7.34065 23.76 8.78462 23.384 9.97147C22.7862 11.8582 22.8676 12.1295 24.0314 12.1295C24.7634 12.1295 25.3624 11.7586 25.3624 11.3054C25.3624 10.8521 26.0446 10.6851 26.8786 10.9341C27.7125 11.1832 29.6077 11.017 31.0902 10.5647L33.7856 9.74236L30.2479 10.0085C27.0094 10.2522 25.5096 9.50611 27.5524 8.66765C28.0157 8.47752 27.6367 8.47656 26.7101 8.6657C25.4843 8.91575 25.2249 8.76545 25.7577 8.11389C26.9191 6.69349 30.3174 6.17553 29.8994 7.48268C29.6938 8.12563 30.0545 8.60946 30.7889 8.67581C31.604 8.74953 31.8981 8.39306 31.6536 7.62818C31.4497 6.99063 31.6282 6.46893 32.05 6.46893C32.4719 6.46893 32.991 7.01266 33.2035 7.67726C33.4161 8.34185 33.8938 8.66031 34.2651 8.38486C34.6806 8.07673 34.5886 7.61231 34.026 7.17766C32.5027 6.0005 39.692 7.83359 45.5781 10.1231C45.7634 10.1951 47.1279 10.9101 48.6105 11.7117C52.8405 13.9993 50.2401 14.0617 45.5704 11.7847C40.1926 9.16234 37.5662 8.59576 35.4705 9.60572L33.7859 10.4175L35.4705 10.3753C38.304 10.3044 44.0601 11.9925 46.8878 13.7233C48.3619 14.6258 50.0529 15.3642 50.6454 15.3642C51.238 15.3642 51.5361 15.7268 51.3079 16.1699C51.0477 16.6752 50.1246 16.4988 48.8322 15.6968C47.3506 14.7774 46.5659 14.6645 46.0402 15.2954C45.5145 15.9263 45.6198 16.1729 46.4148 16.1729C47.023 16.1729 47.728 16.5758 47.9817 17.0682C48.2813 17.65 48.0003 17.8027 47.1791 17.5043C41.3777 15.396 34.7254 14.407 28.777 14.7683C23.056 15.1158 22.5508 15.0343 23.7231 13.953C24.9599 12.812 24.9332 12.7707 23.1928 13.1324C22.1848 13.3419 21.5204 13.202 21.7164 12.8214C21.9123 12.4409 21.4483 12.1296 20.6851 12.1296C19.922 12.1296 19.2976 12.515 19.2976 12.986C19.2976 13.457 19.6084 13.6119 19.9882 13.3302C20.368 13.0485 20.5954 13.3 20.4936 13.889C20.3917 14.478 20.71 14.8599 21.2008 14.7377C21.6916 14.6155 21.9012 14.8884 21.6665 15.3442C21.4317 15.8 20.8027 16.1729 20.2687 16.1729C19.7346 16.1729 19.2977 16.5583 19.2977 17.0293C19.2977 17.5003 18.9915 17.6586 18.6173 17.3811C18.2431 17.1035 17.1409 17.6279 16.1679 18.5464C15.195 19.4648 14.0221 20.2161 13.5615 20.2161C13.1009 20.2161 12.3466 20.762 11.8852 21.4291C10.6633 23.196 11.8401 22.8741 14.9176 20.5994C17.9748 18.3396 19.1855 18.0253 17.95 19.8119C17.4886 20.479 17.337 21.0249 17.6131 21.0249C17.8891 21.0249 17.7375 21.5707 17.2761 22.2379C16.8147 22.905 16.1132 23.4508 15.7171 23.4508C15.321 23.4508 15.5855 22.9166 16.305 22.2636C17.5968 21.091 17.5969 21.076 16.309 21.0506C15.5917 21.0365 14.2869 21.8341 13.4096 22.8232C12.0756 24.3271 11.7158 24.4299 11.2116 23.4509C10.5444 22.1553 9.66968 22.9468 4.06148 29.9203C2.45189 31.9217 1.1279 33.1777 1.11934 32.7113L1.11888 32.7114ZM19.5573 14.7944C18.3721 14.3204 10.9322 18.8032 11.5913 19.5942C11.7959 19.8397 13.8277 18.9225 16.1064 17.556C18.3852 16.1894 19.938 14.9468 19.5572 14.7944H19.5573ZM45.5778 14.5723C45.5778 14.1891 44.5923 13.5986 43.3878 13.26C42.1832 12.9214 40.7428 12.5122 40.1869 12.3505C38.0934 11.7418 27.2755 12.1219 26.2035 12.8418C25.4458 13.3507 26.8124 13.5775 30.4462 13.546C36.9457 13.4894 43.3923 14.3923 43.9291 15.4342C44.3689 16.2882 45.5778 15.6562 45.5778 14.5723ZM50.6484 31.2882C46.8821 28.5625 44.6546 26.6858 45.1856 26.6858C46.223 26.6858 52.9902 31.0394 52.9902 31.7068C52.9902 32.5743 52.2403 32.4402 50.6483 31.2882H50.6484ZM22.6663 30.3249C23.1277 29.6578 23.8085 29.1119 24.179 29.1119C24.5549 29.1119 24.482 29.6483 24.014 30.3249C23.5526 30.9921 22.8719 31.5379 22.5013 31.5379C22.1254 31.5379 22.1984 31.0015 22.6663 30.3249ZM31.7636 29.9205L29.0682 29.3414L31.9321 29.2267C33.5072 29.1636 34.796 29.4758 34.796 29.9205C34.796 30.3653 34.7202 30.6775 34.6275 30.6144C34.5349 30.5513 33.2462 30.2391 31.7636 29.9205ZM28.7312 27.9931C28.7312 27.8226 29.4893 27.5092 30.4159 27.2966C31.3424 27.084 32.1006 27.2236 32.1006 27.6066C32.1006 27.9897 31.3425 28.3032 30.4159 28.3032C29.4894 28.3032 28.7312 28.1637 28.7312 27.9931ZM45.2856 25.1065C44.5689 24.7943 44.2802 24.3182 44.6439 24.0484C45.339 23.5328 47.454 24.7287 46.906 25.3274C46.7314 25.5181 46.0022 25.4187 45.2856 25.1065H45.2856ZM18.704 21.6535C19.4288 20.0284 21.962 18.5281 22.8806 19.1799C23.1835 19.3948 23.5979 18.8062 23.8015 17.8719C24.0051 16.9376 24.2121 16.1539 24.2616 16.1303C24.311 16.1067 26.0616 15.8945 28.1517 15.6587C30.59 15.3837 32.1187 15.5539 32.4172 16.1335C32.7348 16.7502 32.2772 16.9028 30.9755 16.6142C28.3355 16.0289 24.6883 16.9479 24.6883 18.1983C24.6883 19.4569 22.9753 20.4799 20.1609 20.9019C19.7093 20.9697 19.4949 21.5103 19.6845 22.1033C19.8767 22.7044 19.5852 23.1816 19.0259 23.1816C18.2508 23.1816 18.1776 22.8338 18.704 21.6533L18.704 21.6535ZM51.8248 17.302C52.0488 17.0333 52.63 17.0046 53.1164 17.2381C53.6539 17.4963 53.4943 17.6878 52.7092 17.7267C51.9989 17.7617 51.6009 17.5707 51.8248 17.302L51.8248 17.302ZM9.86343 9.70399C10.4194 9.27284 11.3291 8.92005 11.885 8.92005C12.7835 8.92005 12.7835 9.00717 11.885 9.70399C11.3291 10.1351 10.4194 10.4879 9.86343 10.4879C8.96492 10.4879 8.96492 10.4008 9.86343 9.70399ZM44.9038 8.49099C43.9773 7.85537 42.3853 7.3224 41.366 7.30661C40.3468 7.29082 39.5129 6.87166 39.5129 6.37504C39.5129 5.8457 38.8092 5.63353 37.8122 5.86225C36.8768 6.07684 35.9812 5.99942 35.8219 5.6902C35.6627 5.38098 33.4715 5.21959 30.9525 5.33155C28.3021 5.44936 26.9349 5.27413 27.7071 4.91549C28.4411 4.57469 32.1869 4.24756 36.0311 4.18862C41.8553 4.0993 42.8939 4.26485 42.26 5.18144C41.6493 6.06454 42.0009 6.40645 44.0438 6.91579C45.4432 7.26471 46.7869 7.50044 47.0297 7.43964C47.2725 7.3788 47.6421 7.86344 47.8509 8.51653C48.3272 10.0059 47.0964 9.99528 44.9036 8.49099H44.9038ZM13.2327 8.55739C13.2327 8.27641 14.0091 7.69237 14.9579 7.25948C16.0077 6.78051 16.4945 6.1062 16.2015 5.53719C15.9366 5.02287 16.0021 4.81142 16.3471 5.06727C17.3029 5.77614 24.8269 3.46473 25.4404 2.27381C25.8583 1.46227 26.1609 1.44382 26.7842 2.19186C27.6814 3.26847 27.4168 3.42782 19.9712 6.29487C17.5621 7.2225 15.0604 8.22608 14.4118 8.52493C13.7632 8.82379 13.2326 8.8384 13.2326 8.55744L13.2327 8.55739ZM27.564 2.3405C27.4701 0.844933 27.719 0.698779 29.6106 1.13779C35.0998 2.41182 38.5642 2.23648 37.7853 0.72392C37.5802 0.325757 37.5713 0 37.7655 0C37.9596 0 38.4317 0.702379 38.8146 1.56083C39.4715 3.03373 39.2425 3.12276 34.7529 3.13981C32.136 3.14978 29.4721 3.35701 28.833 3.60045C28.0008 3.91744 27.6407 3.55999 27.5641 2.3405H27.564ZM19.6348 2.04813C22.5126 0.969973 24.5674 0.953592 24.0149 2.01325C23.8295 2.36862 22.1617 2.74907 20.3086 2.85867L16.9393 3.05798L19.6348 2.04807V2.04813Z" fill="#3D3A3A"/>
</svg>
